<svg width="58" height="58" viewBox="0 0 58 58" fill="none" xmlns="http://www.w3.org/2000/svg">
<path d="M15.875 21.5H14C13.7514 21.5 13.5129 21.5988 13.3371 21.7746C13.1613 21.9504 13.0625 22.1889 13.0625 22.4375V29.9375C13.0625 30.1862 13.1613 30.4246 13.3371 30.6004C13.5129 30.7763 13.7514 30.875 14 30.875H15.875C17.4256 30.875 18.6875 29.6132 18.6875 28.0625C18.6875 27.3425 18.4156 26.6853 17.9694 26.1875C18.4323 25.6728 18.6881 25.0048 18.6875 24.3125C18.6875 22.7619 17.4256 21.5 15.875 21.5ZM15.875 29H14.9375V27.125H15.875C16.1164 27.1358 16.3443 27.2393 16.5113 27.4139C16.6783 27.5886 16.7715 27.8209 16.7715 28.0625C16.7715 28.3042 16.6783 28.5365 16.5113 28.7111C16.3443 28.8857 16.1164 28.9892 15.875 29ZM15.875 25.25H14.9375V23.375H15.875C16.1164 23.3858 16.3443 23.4893 16.5113 23.6639C16.6783 23.8386 16.7715 24.0709 16.7715 24.3125C16.7715 24.5542 16.6783 24.7865 16.5113 24.9611C16.3443 25.1357 16.1164 25.2392 15.875 25.25ZM25.25 24.3125C25.25 22.7619 23.9881 21.5 22.4375 21.5H20.5625C20.3139 21.5 20.0754 21.5988 19.8996 21.7746C19.7238 21.9504 19.625 22.1889 19.625 22.4375V30.875H21.5V27.125H22.0241C22.8967 28.1166 23.3772 29.3929 23.375 30.7138V30.875H25.25V30.7138C25.254 29.2625 24.8244 27.843 24.0162 26.6375C24.396 26.3801 24.707 26.0336 24.9221 25.6284C25.1372 25.2231 25.2497 24.7713 25.25 24.3125ZM21.5 23.375H22.4375C22.6789 23.3858 22.9068 23.4893 23.0738 23.6639C23.2408 23.8386 23.334 24.0709 23.334 24.3125C23.334 24.5542 23.2408 24.7865 23.0738 24.9611C22.9068 25.1357 22.6789 25.2392 22.4375 25.25H21.5V23.375ZM29 21.5C27.4494 21.5 26.1875 22.7619 26.1875 24.3125V30.875H28.0625V28.0625H29.9375V30.875H31.8125V24.3125C31.8125 22.7619 30.5506 21.5 29 21.5ZM28.0625 26.1875V24.3125C28.0733 24.0711 28.1768 23.8432 28.3514 23.6762C28.5261 23.5092 28.7584 23.416 29 23.416C29.2416 23.416 29.4739 23.5092 29.6486 23.6762C29.8232 23.8432 29.9267 24.0711 29.9375 24.3125V26.1875H28.0625ZM36.5 25.9663L34.5266 22.0185C34.4322 21.8292 34.2767 21.6774 34.0852 21.5877C33.8938 21.498 33.6776 21.4756 33.4718 21.5243C33.266 21.5729 33.0827 21.6897 32.9517 21.8557C32.8207 22.0216 32.7496 22.227 32.75 22.4385V30.876H34.625V26.4097L36.5984 30.3575C36.6927 30.5467 36.8482 30.6985 37.0395 30.7882C37.2309 30.8779 37.447 30.9003 37.6527 30.8518C37.8585 30.8033 38.0417 30.6866 38.1729 30.5209C38.304 30.3551 38.3752 30.1498 38.375 29.9385V21.501H36.5V25.9663ZM42.125 21.5H40.25C40.0014 21.5 39.7629 21.5988 39.5871 21.7746C39.4113 21.9504 39.3125 22.1889 39.3125 22.4375V29.9375C39.3125 30.1862 39.4113 30.4246 39.5871 30.6004C39.7629 30.7763 40.0014 30.875 40.25 30.875H42.125C43.6756 30.875 44.9375 29.6132 44.9375 28.0625V24.3125C44.9375 22.7619 43.6756 21.5 42.125 21.5ZM43.0625 28.0625C43.0625 28.58 42.6416 29 42.125 29H41.1875V23.375H42.125C42.6416 23.375 43.0625 23.795 43.0625 24.3125V28.0625Z" fill="white"/>
<path d="M53.375 12.125C53.6236 12.125 53.8621 12.0262 54.0379 11.8504C54.2137 11.6746 54.3125 11.4361 54.3125 11.1875V9.3125H57.125V7.4375H54.3125V5.5625C54.3125 5.31386 54.2137 5.0754 54.0379 4.89959C53.8621 4.72377 53.6236 4.625 53.375 4.625H51.5V0.875H49.625V4.625H47.75C47.5014 4.625 47.2629 4.72377 47.0871 4.89959C46.9113 5.0754 46.8125 5.31386 46.8125 5.5625V7.4375H11.1875V5.5625C11.1875 5.31386 11.0887 5.0754 10.9129 4.89959C10.7371 4.72377 10.4986 4.625 10.25 4.625H8.375V0.875H6.5V4.625H4.625C4.37636 4.625 4.1379 4.72377 3.96209 4.89959C3.78627 5.0754 3.6875 5.31386 3.6875 5.5625V7.4375H0.875V9.3125H3.6875V11.1875C3.6875 11.4361 3.78627 11.6746 3.96209 11.8504C4.1379 12.0262 4.37636 12.125 4.625 12.125H6.5V45.875H4.625C4.37636 45.875 4.1379 45.9738 3.96209 46.1496C3.78627 46.3254 3.6875 46.5639 3.6875 46.8125V48.6875H0.875V50.5625H3.6875V52.4375C3.6875 52.6861 3.78627 52.9246 3.96209 53.1004C4.1379 53.2762 4.37636 53.375 4.625 53.375H6.5V57.125H8.375V53.375H10.25C10.4986 53.375 10.7371 53.2762 10.9129 53.1004C11.0887 52.9246 11.1875 52.6861 11.1875 52.4375V50.5625H30.4869L34.8997 54.9753C34.9865 55.0627 35.0898 55.132 35.2036 55.1793C35.3173 55.2266 35.4393 55.251 35.5625 55.251C35.6857 55.251 35.8077 55.2266 35.9214 55.1793C36.0352 55.132 36.1385 55.0627 36.2253 54.9753L40.6381 50.5625H46.8125V52.4375C46.8125 52.6861 46.9113 52.9246 47.0871 53.1004C47.2629 53.2762 47.5014 53.375 47.75 53.375H49.625V57.125H51.5V53.375H53.375C53.6236 53.375 53.8621 53.2762 54.0379 53.1004C54.2137 52.9246 54.3125 52.6861 54.3125 52.4375V50.5625H57.125V48.6875H54.3125V46.8125C54.3125 46.5639 54.2137 46.3254 54.0379 46.1496C53.8621 45.9738 53.6236 45.875 53.375 45.875H51.5V12.125H53.375ZM48.6875 6.5H52.4375V10.25H48.6875V6.5ZM5.5625 6.5H9.3125V10.25H5.5625V6.5ZM9.3125 51.5H5.5625V47.75H9.3125V51.5ZM27.6744 43.0625C28.7806 43.0625 29.8194 42.6322 30.6012 41.8503C31.3831 41.0684 31.8125 40.0297 31.8125 38.9244V38.375H29.9375V38.9244C29.9375 39.1991 29.8831 39.4644 29.7894 39.7138L25.1244 35.0487L33.7137 36.3706C33.8731 38.7695 34.7356 41.0683 36.1934 42.98L31.7309 47.4425C29.8189 45.9846 27.5198 45.1222 25.1206 44.9628L23.7997 36.3744L28.4637 41.0384C28.2116 41.1345 27.9442 41.1846 27.6744 41.1866H27.125V43.0616L27.6744 43.0625ZM35.5625 52.9869L32.2006 49.625L38.375 43.4506L41.7369 46.8125L35.5625 52.9869ZM52.4375 51.5H48.6875V47.75H52.4375V51.5ZM49.625 45.875H47.75C47.5014 45.875 47.2629 45.9738 47.0871 46.1496C46.9113 46.3254 46.8125 46.5639 46.8125 46.8125V48.6875H42.5131L43.7253 47.4753C43.8125 47.3883 43.8816 47.285 43.9287 47.1713C43.9759 47.0575 44.0002 46.9356 44.0002 46.8125C44.0002 46.6894 43.9759 46.5675 43.9287 46.4537C43.8816 46.34 43.8125 46.2367 43.7253 46.1497L39.0378 41.4622C38.9508 41.375 38.8475 41.3059 38.7338 41.2588C38.62 41.2116 38.4981 41.1873 38.375 41.1873C38.2519 41.1873 38.13 41.2116 38.0162 41.2588C37.9025 41.3059 37.7992 41.375 37.7122 41.4622L37.5322 41.6422C36.2519 39.8736 35.5626 37.7459 35.5625 35.5625C35.5624 35.3386 35.4822 35.1222 35.3364 34.9523C35.1906 34.7824 34.9888 34.6703 34.7675 34.6362L22.58 32.7613C22.4345 32.7389 22.2859 32.7512 22.146 32.797C22.0062 32.8428 21.8791 32.9209 21.775 33.025C21.6709 33.1291 21.5928 33.2562 21.547 33.396C21.5012 33.5359 21.4889 33.6845 21.5112 33.83L23.3862 46.0175C23.4203 46.2388 23.5324 46.4406 23.7023 46.5864C23.8722 46.7322 24.0886 46.8124 24.3125 46.8125C26.4491 46.8125 28.5153 47.4762 30.2497 48.6875H11.1875V46.8125C11.1875 46.5639 11.0887 46.3254 10.9129 46.1496C10.7371 45.9738 10.4986 45.875 10.25 45.875H8.375V12.125H10.25C10.4986 12.125 10.7371 12.0262 10.9129 11.8504C11.0887 11.6746 11.1875 11.4361 11.1875 11.1875V9.3125H46.8125V11.1875C46.8125 11.4361 46.9113 11.6746 47.0871 11.8504C47.2629 12.0262 47.5014 12.125 47.75 12.125H49.625V45.875Z" fill="white"/>
</svg>
