<svg width="32" height="32" viewBox="0 0 32 32" fill="none" xmlns="http://www.w3.org/2000/svg">
<path d="M30.1944 0.031311L27.5325 28.8634L15.9998 31.9687L4.46685 28.8634L1.80554 0.031311H30.1944ZM24.8306 5.89387H15.9894H6.9916L7.42192 9.37562H15.9894H16.4707L15.9894 9.57593L7.73504 13.0138L8.00879 16.4171L15.9894 16.443L20.2668 16.4566L19.993 20.9944L15.9894 22.1216V22.1181L15.9565 22.1272L12.09 21.1511L11.8554 18.3342H11.8426H8.25623H8.2436L8.71304 23.7722L15.9895 25.924V25.9201L16.0026 25.924L23.24 23.8114L24.1789 13.0138H15.9895H15.9693L15.9895 13.0051L24.4789 9.37562L24.8306 5.89387Z" fill="white"/>
</svg>
