<svg width="61" height="60" viewBox="0 0 61 60" fill="none" xmlns="http://www.w3.org/2000/svg">
<g clip-path="url(#clip0_1_1102)">
<path d="M24.1731 38.5094C23.938 38.5095 23.7106 38.4256 23.5318 38.2728L17.1219 32.8148C17.0126 32.7218 16.9249 32.6062 16.8648 32.4759C16.8046 32.3457 16.7734 32.204 16.7734 32.0605C16.7734 31.9171 16.8046 31.7753 16.8648 31.6451C16.9249 31.5149 17.0126 31.3993 17.1219 31.3063L23.5318 25.8482C23.7318 25.6779 23.9912 25.594 24.2531 25.6149C24.5149 25.6358 24.7577 25.7598 24.9281 25.9598C25.2824 26.3766 25.2326 27.0017 24.8159 27.356L19.2921 32.0602L24.8159 36.7643C24.9704 36.8957 25.0808 37.0713 25.1322 37.2675C25.1837 37.4637 25.1737 37.6709 25.1036 37.8612C25.0335 38.0515 24.9066 38.2157 24.7402 38.3317C24.5738 38.4476 24.376 38.5096 24.1731 38.5094ZM36.8269 38.5094C36.5467 38.5094 36.2682 38.3911 36.0725 38.1606C35.9022 37.9606 35.8183 37.7011 35.8392 37.4393C35.8602 37.1775 35.9842 36.9347 36.1842 36.7643L41.708 32.0602L36.1842 27.356C35.9914 27.1837 35.8736 26.9428 35.856 26.6848C35.8384 26.4268 35.9224 26.1721 36.0901 25.9752C36.2577 25.7783 36.4958 25.6548 36.7533 25.6311C37.0108 25.6073 37.2674 25.6852 37.4682 25.8481L43.8782 31.3061C43.9874 31.3991 44.0751 31.5147 44.1353 31.645C44.1955 31.7752 44.2266 31.9169 44.2266 32.0604C44.2266 32.2038 44.1955 32.3456 44.1353 32.4758C44.0751 32.606 43.9874 32.7216 43.8782 32.8146L37.4682 38.2726C37.2895 38.4254 37.0622 38.5094 36.8271 38.5094H36.8269ZM28.2309 42.6032C28.0834 42.6034 27.9377 42.5706 27.8044 42.5073C27.6711 42.444 27.5537 42.3517 27.4607 42.2371C27.3676 42.1226 27.3014 41.9888 27.2667 41.8453C27.232 41.7019 27.2298 41.5526 27.2602 41.4082L31.255 22.4408C31.3092 22.1838 31.4632 21.9587 31.6833 21.8152C31.9034 21.6718 32.1715 21.6216 32.4286 21.6758C32.6857 21.7299 32.9107 21.884 33.0542 22.1041C33.1977 22.3242 33.2478 22.5923 33.1937 22.8494L29.1989 41.8166C29.1521 42.0388 29.0304 42.2382 28.8542 42.3814C28.678 42.5246 28.458 42.6029 28.2309 42.6032Z" fill="white"/>
<path d="M53.8491 52.9367H7.15094C3.48387 52.9367 0.5 49.9534 0.5 46.2858V6.65094C0.5 2.98387 3.48387 0 7.15094 0H53.8491C57.5161 0 60.5 2.98387 60.5 6.65094V46.2858C60.5 49.9534 57.5161 52.9367 53.8491 52.9367ZM7.15094 1.98113C4.57618 1.98113 2.48113 4.07618 2.48113 6.65094V46.2858C2.48113 48.8605 4.57618 50.9556 7.15094 50.9556H53.8491C56.4238 50.9556 58.5189 48.8605 58.5189 46.2858V6.65094C58.5189 4.07618 56.4238 1.98113 53.8491 1.98113H7.15094Z" fill="white"/>
<path d="M59.5094 15.8618H1.49056C1.23075 15.8574 0.983062 15.7511 0.800878 15.5658C0.618694 15.3805 0.516602 15.1311 0.516602 14.8712C0.516602 14.6114 0.618694 14.3619 0.800878 14.1766C0.983062 13.9913 1.23075 13.885 1.49056 13.8806H59.5094C59.7692 13.885 60.0169 13.9913 60.1991 14.1766C60.3813 14.3619 60.4834 14.6114 60.4834 14.8712C60.4834 15.1311 60.3813 15.3805 60.1991 15.5658C60.0169 15.7511 59.7692 15.8574 59.5094 15.8618ZM17.4248 11.1218C15.6968 11.1218 14.29 9.71489 14.29 7.98692C14.29 6.25852 15.6968 4.8522 17.4248 4.8522C19.1532 4.8522 20.5595 6.25852 20.5595 7.98692C20.5595 9.71489 19.1532 11.1218 17.4248 11.1218ZM17.4248 6.83333C16.789 6.83333 16.2711 7.35069 16.2711 7.98692C16.2711 8.62315 16.789 9.14065 17.4248 9.14065C18.061 9.14065 18.5784 8.62329 18.5784 7.98692C18.5784 7.35055 18.061 6.83333 17.4248 6.83333ZM7.7934 11.0914C6.06472 11.0914 4.65854 9.68503 4.65854 7.95664C4.65854 6.2281 6.06472 4.82178 7.79325 4.82178C9.52179 4.82178 10.928 6.2281 10.928 7.95664C10.928 9.68503 9.52193 11.0914 7.7934 11.0914ZM7.7934 6.80291C7.15759 6.80291 6.63967 7.32083 6.63967 7.95664C6.63967 8.59286 7.15759 9.11022 7.79325 9.11022C8.42948 9.11022 8.94684 8.59286 8.94684 7.95664C8.94684 7.32083 8.42962 6.80291 7.7934 6.80291ZM27.0562 11.1516C25.3284 11.1516 23.9221 9.74532 23.9221 8.01678C23.9221 6.28895 25.3283 4.88263 27.0562 4.88263C28.7848 4.88263 30.1909 6.28881 30.1909 8.01678C30.1909 9.74532 28.7848 11.1516 27.0562 11.1516ZM27.0562 6.86319C26.4206 6.86319 25.9032 7.38055 25.9032 8.01678C25.9032 8.653 26.4206 9.1705 27.0562 9.1705C27.6925 9.1705 28.2098 8.653 28.2098 8.01678C28.2098 7.38055 27.6925 6.86319 27.0562 6.86319Z" fill="white"/>
</g>
<defs>
<clipPath id="clip0_1_1102">
<rect width="60" height="60" fill="white" transform="translate(0.5)"/>
</clipPath>
</defs>
</svg>
