<svg width="61" height="61" viewBox="0 0 61 61" fill="none" xmlns="http://www.w3.org/2000/svg">
<path d="M21.7047 56.5275C23.5205 56.5275 24.0337 55.817 24.0337 54.9091C24.0337 54.0012 24.0337 52.0275 23.9942 49.2249C14.56 51.2381 12.5468 44.7249 12.5468 44.7249C11.0074 40.896 8.75736 39.8302 8.75736 39.8302C5.67841 37.7775 8.9942 37.817 8.9942 37.817C12.3889 38.0538 14.2047 41.2512 14.2047 41.2512C17.2442 46.3828 22.1389 44.8828 24.0732 44.0144C24.231 42.317 24.981 40.6986 26.2442 39.5144C18.7047 38.6854 10.7705 35.8038 10.7705 23.0144C10.731 19.6986 11.9942 16.4617 14.2837 14.0538C13.8889 13.2249 12.7442 9.83016 14.56 5.21174C14.56 5.21174 17.4021 4.30384 23.9153 8.64595C29.481 7.14595 35.3231 7.14595 40.8889 8.64595C47.3232 4.34332 50.2047 5.21174 50.2047 5.21174C52.0205 9.79069 50.8758 13.1854 50.56 14.0538C52.8495 16.4617 54.0732 19.6986 54.0337 23.0144C54.0337 35.8433 46.0995 38.646 38.5205 39.4749C39.7047 40.4617 40.81 42.5144 40.81 45.6328C40.81 50.1328 40.7705 53.6854 40.7705 54.7512C40.7705 55.6196 41.1653 56.3302 43.0995 56.3302L21.7047 56.5275Z" fill="white"/>
</svg>
