<svg width="36" height="36" viewBox="0 0 36 36" fill="none" xmlns="http://www.w3.org/2000/svg">
<path d="M35.8602 19.86L34.2722 16.48L35.1242 12.844C35.1562 12.7 35.1082 12.548 34.9962 12.452L32.1722 10.012L31.4722 6.34401C31.4442 6.196 31.3362 6.08 31.1962 6.036L27.6202 4.956L25.4882 1.892C25.4471 1.83114 25.3896 1.7831 25.3224 1.75339C25.2552 1.72368 25.1809 1.71349 25.1082 1.724L21.4042 2.192L18.2082 0.260004C18.1453 0.222691 18.0734 0.203003 18.0002 0.203003C17.927 0.203003 17.8552 0.222691 17.7922 0.260004L14.5962 2.192L10.8922 1.724C10.7402 1.704 10.6002 1.772 10.5122 1.892L8.38022 4.956L4.80422 6.036C4.66022 6.08 4.55622 6.196 4.52822 6.34401L3.82822 10.012L1.00422 12.452C0.892223 12.548 0.840222 12.7 0.876222 12.844L1.72822 16.48L0.140222 19.86C0.0762224 19.996 0.0922225 20.152 0.184222 20.272L2.44022 23.248L2.36422 26.98C2.36422 27.128 2.44022 27.268 2.57222 27.34L5.84422 29.14L7.29222 32.58C7.34822 32.716 7.48022 32.812 7.62822 32.824L11.3482 33.136L14.0722 35.692C14.1802 35.792 14.3362 35.828 14.4762 35.78L18.0042 34.552L21.5322 35.78C21.5762 35.796 21.6202 35.804 21.6642 35.804C21.7642 35.804 21.8642 35.768 21.9362 35.696L24.6602 33.14L28.3802 32.828C28.5282 32.816 28.6562 32.72 28.7162 32.584L30.1642 29.144L33.4362 27.344C33.5682 27.272 33.6482 27.136 33.6442 26.984L33.5682 23.252L35.8242 20.276C35.9122 20.156 35.9322 20 35.8682 19.864L35.8602 19.86ZM32.8402 22.872C32.7843 22.9437 32.7559 23.0331 32.7602 23.124L32.8362 26.756L29.6562 28.508C29.5771 28.5516 29.5151 28.6207 29.4802 28.704L28.0722 32.052L24.4562 32.356C24.3682 32.364 24.2802 32.4 24.2162 32.464L21.5682 34.948L18.1402 33.756C18.0962 33.74 18.0522 33.732 18.0082 33.732C17.9642 33.732 17.9202 33.74 17.8762 33.756L14.4482 34.948L11.8002 32.464C11.7362 32.404 11.6482 32.364 11.5602 32.356L7.94422 32.052L6.53622 28.704C6.50137 28.6207 6.43934 28.5516 6.36022 28.508L3.18022 26.756L3.25622 23.124C3.25622 23.032 3.22822 22.944 3.17622 22.872L0.980222 19.98L2.52422 16.696C2.56422 16.616 2.57222 16.524 2.55222 16.436L1.72422 12.9L4.47222 10.528C4.54022 10.468 4.58822 10.388 4.60422 10.3L5.28422 6.732L8.76022 5.68001C8.84822 5.656 8.92022 5.6 8.97222 5.524L11.0442 2.544L14.6482 3C14.7362 3.012 14.8282 2.992 14.9042 2.944L18.0122 1.064L21.1202 2.944C21.1962 2.992 21.2882 3.012 21.3762 3L24.9802 2.544L27.0522 5.524C27.1042 5.6 27.1802 5.65201 27.2642 5.68001L30.7402 6.732L31.4202 10.3C31.4362 10.388 31.4842 10.468 31.5522 10.528L34.3002 12.9L33.4722 16.436C33.4512 16.5233 33.4611 16.6152 33.5002 16.696L35.0442 19.98L32.8482 22.872H32.8402Z" fill="url(#paint0_linear_1_1479)"/>
<path d="M18.0001 5.03601C10.8521 5.03601 5.03613 10.852 5.03613 18C5.03613 25.148 10.8521 30.964 18.0001 30.964C25.1481 30.964 30.9641 25.148 30.9641 18C30.9641 10.852 25.1481 5.03601 18.0001 5.03601ZM18.0001 30.164C11.2921 30.164 5.83613 24.708 5.83613 18C5.83613 11.292 11.2921 5.83601 18.0001 5.83601C24.7081 5.83601 30.1641 11.292 30.1641 18C30.1641 24.708 24.7081 30.164 18.0001 30.164Z" fill="url(#paint1_linear_1_1479)"/>
<path d="M24.9921 10.608L15.2241 20.376L11.0081 16.16C10.9711 16.1229 10.9272 16.0935 10.8788 16.0734C10.8304 16.0533 10.7785 16.043 10.7261 16.043C10.6738 16.043 10.6219 16.0533 10.5735 16.0734C10.5251 16.0935 10.4811 16.1229 10.4441 16.16L8.36014 18.244C8.32306 18.281 8.29364 18.3249 8.27357 18.3733C8.2535 18.4217 8.24316 18.4736 8.24316 18.526C8.24316 18.5784 8.2535 18.6302 8.27357 18.6786C8.29364 18.727 8.32306 18.771 8.36014 18.808L14.9441 25.392C15.0201 25.468 15.1241 25.508 15.2241 25.508C15.3241 25.508 15.4321 25.468 15.5121 25.388L27.6441 13.256C27.7201 13.18 27.7601 13.08 27.7601 12.972C27.7601 12.864 27.7161 12.764 27.6441 12.688L25.5601 10.604C25.5231 10.5669 25.4792 10.5375 25.4308 10.5174C25.3824 10.4973 25.3305 10.487 25.2781 10.487C25.2258 10.487 25.1739 10.4973 25.1255 10.5174C25.0771 10.5375 25.0331 10.5669 24.9961 10.604L24.9921 10.608ZM15.2241 24.544L9.20814 18.528L10.7241 17.012L14.9401 21.228C15.0961 21.384 15.3481 21.384 15.5041 21.228L25.2721 11.46L26.7881 12.976L15.2201 24.544H15.2241Z" fill="url(#paint2_linear_1_1479)"/>
<defs>
<linearGradient id="paint0_linear_1_1479" x1="0.101563" y1="18.3052" x2="34.8428" y2="33.547" gradientUnits="userSpaceOnUse">
<stop stop-color="#564C95"/>
<stop offset="0.18" stop-color="#9270E7"/>
<stop offset="0.365" stop-color="#ADD4F0"/>
<stop offset="0.63" stop-color="#564C95"/>
<stop offset="0.74" stop-color="#564C95"/>
<stop offset="0.885" stop-color="#9270E7" stop-opacity="0.85"/>
</linearGradient>
<linearGradient id="paint1_linear_1_1479" x1="5.03613" y1="18.2197" x2="30.2404" y2="29.2147" gradientUnits="userSpaceOnUse">
<stop stop-color="#564C95"/>
<stop offset="0.18" stop-color="#9270E7"/>
<stop offset="0.365" stop-color="#ADD4F0"/>
<stop offset="0.63" stop-color="#564C95"/>
<stop offset="0.74" stop-color="#564C95"/>
<stop offset="0.885" stop-color="#9270E7" stop-opacity="0.85"/>
</linearGradient>
<linearGradient id="paint2_linear_1_1479" x1="8.24316" y1="18.1248" x2="25.3348" y2="27.8124" gradientUnits="userSpaceOnUse">
<stop stop-color="#564C95"/>
<stop offset="0.18" stop-color="#9270E7"/>
<stop offset="0.365" stop-color="#ADD4F0"/>
<stop offset="0.63" stop-color="#564C95"/>
<stop offset="0.74" stop-color="#564C95"/>
<stop offset="0.885" stop-color="#9270E7" stop-opacity="0.85"/>
</linearGradient>
</defs>
</svg>
