<svg width="41" height="40" viewBox="0 0 41 40" fill="none" xmlns="http://www.w3.org/2000/svg">
<path d="M27.7534 15.6356L26.3472 15.4656C26.2257 15.0524 26.0605 14.6533 25.8544 14.275L26.7337 13.1684C26.8173 13.0633 26.8593 12.9311 26.8516 12.7971C26.8439 12.663 26.7872 12.5365 26.6922 12.4416L25.2547 11.0041C25.1601 10.9095 25.0343 10.8529 24.9008 10.8448C24.7673 10.8368 24.6356 10.8779 24.5303 10.9603L23.4156 11.8353C23.0376 11.6287 22.6386 11.4632 22.2253 11.3416L22.0659 9.93751C22.0507 9.80409 21.9868 9.68095 21.8866 9.59156C21.7864 9.50218 21.6568 9.45279 21.5225 9.45282H19.4913C19.3576 9.45291 19.2286 9.50191 19.1286 9.59057C19.0286 9.67922 18.9645 9.80141 18.9484 9.93407L18.7784 11.3403C18.3651 11.462 17.9658 11.6273 17.5875 11.8334L16.4809 10.9538C16.3758 10.8702 16.2436 10.8282 16.1095 10.8358C15.9754 10.8434 15.8488 10.9001 15.7538 10.995L14.3178 12.4325C14.2233 12.5271 14.1666 12.6529 14.1586 12.7864C14.1505 12.9199 14.1916 13.0516 14.2741 13.1569L15.1491 14.2716C14.9425 14.6497 14.777 15.0488 14.6553 15.4622L13.2503 15.6219C13.1169 15.6371 12.9938 15.7008 12.9044 15.801C12.815 15.9012 12.7656 16.0308 12.7656 16.165V18.1963C12.7657 18.3299 12.8147 18.4589 12.9034 18.5589C12.992 18.6589 13.1142 18.723 13.2469 18.7391L14.6531 18.9091C14.7747 19.3223 14.94 19.7215 15.1463 20.0997L14.2666 21.2066C14.183 21.3117 14.141 21.4439 14.1486 21.578C14.1562 21.7121 14.2129 21.8387 14.3078 21.9338L15.7453 23.3697C15.8398 23.4643 15.9657 23.521 16.0992 23.529C16.2327 23.5371 16.3645 23.496 16.4697 23.4134L17.5844 22.5384C17.9624 22.7451 18.3614 22.9106 18.7747 23.0322L18.9347 24.4375C18.9499 24.5709 19.0137 24.694 19.1138 24.7834C19.214 24.8728 19.3436 24.9222 19.4778 24.9222H21.5091C21.6428 24.9222 21.7718 24.8732 21.8719 24.7846C21.9719 24.6959 22.0361 24.5737 22.0522 24.4409L22.2222 23.0347C22.6356 22.9133 23.0348 22.748 23.4131 22.5419L24.5197 23.4216C24.6248 23.5052 24.7569 23.5472 24.891 23.5396C25.0251 23.532 25.1516 23.4753 25.2466 23.3803L26.6841 21.9428C26.7786 21.8483 26.8352 21.7224 26.8433 21.5889C26.8514 21.4555 26.8103 21.3237 26.7278 21.2184L25.8528 20.1038C26.0594 19.7258 26.225 19.3267 26.3466 18.9134L27.7503 18.7531C27.8837 18.7379 28.0068 18.6742 28.0962 18.574C28.1856 18.4738 28.235 18.3443 28.235 18.21V16.1788C28.235 16.045 28.186 15.9159 28.0972 15.8159C28.0085 15.7158 27.8862 15.6517 27.7534 15.6356ZM27.1409 17.7219L25.8487 17.87C25.736 17.8828 25.6301 17.9304 25.5456 18.0062C25.4612 18.0819 25.4024 18.1821 25.3775 18.2928C25.2527 18.847 25.0335 19.3755 24.7294 19.8553C24.6689 19.9507 24.6394 20.0625 24.645 20.1753C24.6506 20.2881 24.691 20.3964 24.7606 20.4853L25.5659 21.5119L24.8159 22.2603L23.7981 21.4513C23.7092 21.3807 23.6006 21.3395 23.4873 21.3334C23.374 21.3272 23.2616 21.3564 23.1656 21.4169C22.6857 21.7206 22.1572 21.9396 21.6031 22.0644C21.4929 22.0893 21.3931 22.1478 21.3175 22.2317C21.2418 22.3156 21.194 22.4209 21.1806 22.5331L21.0244 23.8284H19.9659L19.8178 22.5363C19.8049 22.4236 19.7573 22.3177 19.6815 22.2332C19.6058 22.1488 19.5056 22.09 19.395 22.065C18.8408 21.9402 18.3123 21.721 17.8325 21.4169C17.7371 21.3564 17.6253 21.327 17.5125 21.3326C17.3997 21.3382 17.2914 21.3785 17.2025 21.4481L16.1753 22.2538L15.4269 21.5038L16.2359 20.4856C16.3065 20.3968 16.3477 20.2882 16.3539 20.1749C16.36 20.0615 16.3308 19.9491 16.2703 19.8531C15.9666 19.3732 15.7474 18.8447 15.6225 18.2906C15.5976 18.1804 15.5391 18.0807 15.4552 18.005C15.3712 17.9294 15.2659 17.8815 15.1537 17.8681L13.8588 17.7119V16.6531L15.1509 16.505C15.2637 16.4922 15.3696 16.4445 15.454 16.3688C15.5385 16.293 15.5972 16.1929 15.6222 16.0822C15.7471 15.528 15.9664 14.9995 16.2706 14.5197C16.331 14.4243 16.3604 14.3125 16.3548 14.1997C16.3492 14.087 16.3089 13.9787 16.2394 13.8897L15.4341 12.8631L16.1841 12.115L17.2019 12.9241C17.2908 12.9946 17.3994 13.0358 17.5127 13.0419C17.626 13.0481 17.7384 13.0189 17.8344 12.9584C18.3144 12.6548 18.8428 12.4357 19.3969 12.3106C19.5071 12.2857 19.6069 12.2273 19.6826 12.1433C19.7582 12.0594 19.806 11.9541 19.8194 11.8419L19.9756 10.5469H21.0347L21.1828 11.8391C21.1957 11.9518 21.2433 12.0577 21.319 12.1421C21.3948 12.2266 21.495 12.2854 21.6056 12.3103C22.1598 12.4352 22.6883 12.6544 23.1681 12.9584C23.2635 13.0191 23.3753 13.0486 23.4881 13.043C23.6009 13.0374 23.7093 12.9969 23.7981 12.9272L24.8247 12.1219L25.5731 12.8719L24.7637 13.8897C24.6933 13.9786 24.6521 14.0872 24.646 14.2005C24.6399 14.3138 24.6692 14.4262 24.7297 14.5222C25.0335 15.0021 25.2526 15.5306 25.3775 16.0847C25.4024 16.1949 25.4609 16.2947 25.5448 16.3703C25.6288 16.446 25.7341 16.4938 25.8463 16.5072L27.1412 16.6634L27.1409 17.7219Z" fill="url(#paint0_linear_1_1454)"/>
<path d="M20.5003 13.8035C19.831 13.8035 19.1767 14.0019 18.6202 14.3738C18.0637 14.7456 17.6299 15.2741 17.3738 15.8925C17.1177 16.5109 17.0507 17.1913 17.1812 17.8477C17.3118 18.5042 17.6341 19.1072 18.1074 19.5804C18.5807 20.0537 19.1836 20.376 19.8401 20.5066C20.4965 20.6371 21.1769 20.5701 21.7953 20.314C22.4137 20.0579 22.9422 19.6241 23.314 19.0676C23.6859 18.5111 23.8843 17.8568 23.8843 17.1875C23.8833 16.2903 23.5265 15.4302 22.8921 14.7957C22.2577 14.1613 21.3975 13.8045 20.5003 13.8035ZM20.5003 19.4778C20.0473 19.4778 19.6045 19.3435 19.2278 19.0919C18.8512 18.8402 18.5576 18.4825 18.3843 18.064C18.211 17.6455 18.1656 17.185 18.254 16.7407C18.3423 16.2964 18.5605 15.8883 18.8808 15.568C19.2011 15.2477 19.6092 15.0296 20.0535 14.9412C20.4977 14.8529 20.9582 14.8982 21.3767 15.0716C21.7952 15.2449 22.1529 15.5385 22.4046 15.9151C22.6563 16.2917 22.7906 16.7345 22.7906 17.1875C22.7898 17.7947 22.5483 18.3768 22.1189 18.8062C21.6896 19.2356 21.1075 19.4771 20.5003 19.4778Z" fill="url(#paint1_linear_1_1454)"/>
<path d="M20.5 6.32812C18.3712 6.32797 16.2893 6.95358 14.5132 8.12715C12.737 9.30073 11.3451 10.9705 10.5103 12.9288C9.67561 14.8872 9.43493 17.0477 9.81824 19.1417C10.2016 21.2357 11.1919 23.1709 12.6662 24.7066C13.945 26.0466 14.6529 27.8312 14.6406 29.6834V30.9375C14.6411 31.3183 14.7624 31.6891 14.987 31.9966C15.2117 32.3041 15.528 32.5324 15.8906 32.6488V36.5625C15.8911 37.0389 16.0806 37.4957 16.4175 37.8325C16.7543 38.1694 17.2111 38.3589 17.6875 38.3594H23.3125C23.7889 38.3589 24.2457 38.1694 24.5825 37.8325C24.9194 37.4957 25.1089 37.0389 25.1094 36.5625V32.6488C25.472 32.5324 25.7883 32.3041 26.013 31.9966C26.2376 31.6891 26.3589 31.3183 26.3594 30.9375V29.6834C26.347 27.8311 27.0551 26.0465 28.3341 24.7066C29.8084 23.1709 30.7988 21.2357 31.1821 19.1416C31.5654 17.0476 31.3247 14.887 30.4899 12.9287C29.6551 10.9703 28.2631 9.30058 26.487 8.12702C24.7108 6.95347 22.6288 6.32791 20.5 6.32812ZM24.0156 32.7344V34.4531H16.9844V32.7344H24.0156ZM23.3125 37.2656H17.6875C17.5011 37.2654 17.3224 37.1912 17.1906 37.0594C17.0588 36.9276 16.9846 36.7489 16.9844 36.5625V35.5469H24.0156V36.5625C24.0154 36.7489 23.9412 36.9276 23.8094 37.0594C23.6776 37.1912 23.4989 37.2654 23.3125 37.2656ZM27.5453 23.9494C26.0696 25.4923 25.2516 27.5485 25.2641 29.6834V30.9375C25.2638 31.1236 25.1899 31.3021 25.0584 31.4339C24.9269 31.5656 24.7486 31.64 24.5625 31.6406H16.4375C16.2511 31.6404 16.0724 31.5662 15.9406 31.4344C15.8088 31.3026 15.7346 31.1239 15.7344 30.9375V29.6834C15.7473 27.5487 14.9299 25.4926 13.455 23.9494C12.1293 22.5682 11.2387 20.8279 10.8941 18.9447C10.5494 17.0616 10.7659 15.1186 11.5166 13.3575C12.2673 11.5964 13.519 10.0947 15.1163 9.03928C16.7135 7.98382 18.5857 7.42112 20.5002 7.42112C22.4146 7.42112 24.2868 7.98382 25.884 9.03928C27.4813 10.0947 28.733 11.5964 29.4837 13.3575C30.2344 15.1186 30.4509 17.0616 30.1062 18.9447C29.7616 20.8279 28.8711 22.5682 27.5453 23.9494ZM20.5 4.92188C20.5718 4.92192 20.643 4.9078 20.7093 4.88033C20.7757 4.85286 20.836 4.81258 20.8868 4.76179C20.9376 4.711 20.9779 4.6507 21.0053 4.58433C21.0328 4.51796 21.0469 4.44683 21.0469 4.375V2.1875C21.0469 2.04246 20.9893 1.90336 20.8867 1.8008C20.7841 1.69824 20.645 1.64063 20.5 1.64062C20.355 1.64063 20.2159 1.69824 20.1133 1.8008C20.0107 1.90336 19.9531 2.04246 19.9531 2.1875V4.375C19.9531 4.44683 19.9672 4.51796 19.9947 4.58433C20.0221 4.6507 20.0624 4.711 20.1132 4.76179C20.164 4.81258 20.2243 4.85286 20.2907 4.88033C20.357 4.9078 20.4282 4.92192 20.5 4.92188ZM35.5 16.6406H33.3125C33.1675 16.6406 33.0284 16.6982 32.9258 16.8008C32.8232 16.9034 32.7656 17.0425 32.7656 17.1875C32.7656 17.3325 32.8232 17.4716 32.9258 17.5742C33.0284 17.6768 33.1675 17.7344 33.3125 17.7344H35.5C35.645 17.7344 35.7841 17.6768 35.8867 17.5742C35.9893 17.4716 36.0469 17.3325 36.0469 17.1875C36.0469 17.0425 35.9893 16.9034 35.8867 16.8008C35.7841 16.6982 35.645 16.6406 35.5 16.6406ZM7.6875 16.6406H5.5C5.35496 16.6406 5.21586 16.6982 5.1133 16.8008C5.01074 16.9034 4.95312 17.0425 4.95313 17.1875C4.95312 17.3325 5.01074 17.4716 5.1133 17.5742C5.21586 17.6768 5.35496 17.7344 5.5 17.7344H7.6875C7.83254 17.7344 7.97164 17.6768 8.0742 17.5742C8.17676 17.4716 8.23438 17.3325 8.23438 17.1875C8.23438 17.0425 8.17676 16.9034 8.0742 16.8008C7.97164 16.6982 7.83254 16.6406 7.6875 16.6406ZM30.7188 6.19406L29.1719 7.74125C29.0694 7.84377 29.0118 7.98282 29.0118 8.12781C29.0118 8.2728 29.0694 8.41185 29.1719 8.51438C29.2744 8.6169 29.4134 8.67449 29.5584 8.67449C29.7034 8.67449 29.8425 8.6169 29.945 8.51438L31.4922 6.9675C31.5948 6.86494 31.6524 6.72583 31.6524 6.58078C31.6524 6.43573 31.5948 6.29663 31.4922 6.19406C31.3896 6.0915 31.2505 6.03388 31.1055 6.03388C30.9604 6.03388 30.8213 6.0915 30.7188 6.19406Z" fill="url(#paint2_linear_1_1454)"/>
<path d="M11.053 25.8606L9.50615 27.4075C9.40358 27.5102 9.34603 27.6495 9.34614 27.7947C9.34626 27.9398 9.40404 28.079 9.50677 28.1816C9.6095 28.2841 9.74877 28.3417 9.89393 28.3416C10.0391 28.3415 10.1783 28.2837 10.2808 28.1809L11.8277 26.6338C11.9273 26.5306 11.9824 26.3924 11.9811 26.2491C11.9799 26.1057 11.9223 25.9685 11.8209 25.8671C11.7195 25.7658 11.5823 25.7083 11.4389 25.7071C11.2955 25.7058 11.1574 25.761 11.0543 25.8606H11.053ZM29.9458 25.8606C29.8433 25.7581 29.7043 25.7005 29.5593 25.7005C29.4143 25.7005 29.2752 25.7581 29.1727 25.8606C29.0702 25.9632 29.0126 26.1022 29.0126 26.2472C29.0126 26.3922 29.0702 26.5312 29.1727 26.6338L30.7196 28.1809C30.8223 28.2835 30.9616 28.3411 31.1067 28.341C31.2519 28.3408 31.3911 28.2831 31.4936 28.1803C31.5962 28.0776 31.6538 27.9383 31.6536 27.7932C31.6535 27.648 31.5958 27.5088 31.493 27.4063L29.9458 25.8606ZM11.053 8.51439C11.1561 8.61402 11.2943 8.66917 11.4377 8.66796C11.5811 8.66674 11.7182 8.60925 11.8196 8.50788C11.9211 8.4065 11.9786 8.26935 11.9799 8.12596C11.9811 7.98258 11.9261 7.84442 11.8265 7.74126L10.2808 6.19407C10.1781 6.09134 10.0388 6.03363 9.89349 6.03363C9.74821 6.03363 9.60888 6.09134 9.50615 6.19407C9.40342 6.2968 9.3457 6.43613 9.3457 6.58142C9.3457 6.7267 9.40342 6.86603 9.50615 6.96876L11.053 8.51439Z" fill="url(#paint3_linear_1_1454)"/>
<defs>
<linearGradient id="paint0_linear_1_1454" x1="12.7656" y1="17.3186" x2="27.8032" y2="23.8785" gradientUnits="userSpaceOnUse">
<stop stop-color="#564C95"/>
<stop offset="0.18" stop-color="#9270E7"/>
<stop offset="0.365" stop-color="#ADD4F0"/>
<stop offset="0.63" stop-color="#564C95"/>
<stop offset="0.74" stop-color="#564C95"/>
<stop offset="0.885" stop-color="#9270E7" stop-opacity="0.85"/>
</linearGradient>
<linearGradient id="paint1_linear_1_1454" x1="17.1162" y1="17.2449" x2="23.6954" y2="20.115" gradientUnits="userSpaceOnUse">
<stop stop-color="#564C95"/>
<stop offset="0.18" stop-color="#9270E7"/>
<stop offset="0.365" stop-color="#ADD4F0"/>
<stop offset="0.63" stop-color="#564C95"/>
<stop offset="0.74" stop-color="#564C95"/>
<stop offset="0.885" stop-color="#9270E7" stop-opacity="0.85"/>
</linearGradient>
<linearGradient id="paint2_linear_1_1454" x1="4.95313" y1="20.3112" x2="36.6109" y2="32.0058" gradientUnits="userSpaceOnUse">
<stop stop-color="#564C95"/>
<stop offset="0.18" stop-color="#9270E7"/>
<stop offset="0.365" stop-color="#ADD4F0"/>
<stop offset="0.63" stop-color="#564C95"/>
<stop offset="0.74" stop-color="#564C95"/>
<stop offset="0.885" stop-color="#9270E7" stop-opacity="0.85"/>
</linearGradient>
<linearGradient id="paint3_linear_1_1454" x1="9.3457" y1="17.3767" x2="31.031" y2="26.8365" gradientUnits="userSpaceOnUse">
<stop stop-color="#564C95"/>
<stop offset="0.18" stop-color="#9270E7"/>
<stop offset="0.365" stop-color="#ADD4F0"/>
<stop offset="0.63" stop-color="#564C95"/>
<stop offset="0.74" stop-color="#564C95"/>
<stop offset="0.885" stop-color="#9270E7" stop-opacity="0.85"/>
</linearGradient>
</defs>
</svg>
