<svg width="40" height="40" viewBox="0 0 40 40" fill="none" xmlns="http://www.w3.org/2000/svg">
<path d="M32.24 0.859375H12.3361C12.2322 0.859375 12.133 0.900781 12.0596 0.973438L5.58379 7.45C5.51035 7.52344 5.46973 7.62266 5.46973 7.72656V36.8516C5.46973 38.1141 6.49707 39.1406 7.75879 39.1406H32.2408C33.5033 39.1406 34.5299 38.1133 34.5299 36.8516V3.14844C34.5299 1.88672 33.5025 0.859375 32.24 0.859375ZM11.9455 2.19297V5.82734C11.9455 6.65859 11.2689 7.33516 10.4377 7.33516H6.80254L11.9455 2.19297ZM33.7486 36.8516C33.7486 37.6828 33.0721 38.3594 32.2408 38.3594H7.75879C6.92754 38.3594 6.25098 37.6828 6.25098 36.8516V8.11719H10.4377C11.7002 8.11719 12.7268 7.08984 12.7268 5.82812V1.64062H32.2408C33.0721 1.64062 33.7486 2.31719 33.7486 3.14844V36.8516ZM30.1369 10.4867C30.1369 10.7023 29.9619 10.8773 29.7463 10.8773H18.34C18.1244 10.8773 17.9494 10.7023 17.9494 10.4867C17.9494 10.2711 18.1244 10.0961 18.34 10.0961H29.7463C29.9627 10.0961 30.1369 10.2711 30.1369 10.4867ZM17.9502 12.8539C17.9502 12.6383 18.1252 12.4633 18.3408 12.4633H24.0439C24.2596 12.4633 24.4346 12.6383 24.4346 12.8539C24.4346 13.0695 24.2596 13.2445 24.0439 13.2445H18.3408C18.1244 13.2445 17.9502 13.0695 17.9502 12.8539ZM30.1369 18.8164C30.1369 19.032 29.9619 19.207 29.7463 19.207H18.34C18.1244 19.207 17.9494 19.032 17.9494 18.8164C17.9494 18.6008 18.1244 18.4258 18.34 18.4258H29.7463C29.9627 18.4258 30.1369 18.6008 30.1369 18.8164ZM17.9502 21.1836C17.9502 20.968 18.1252 20.793 18.3408 20.793H24.0439C24.2596 20.793 24.4346 20.968 24.4346 21.1836C24.4346 21.3992 24.2596 21.5742 24.0439 21.5742H18.3408C18.1244 21.5742 17.9502 21.3992 17.9502 21.1836ZM24.4346 29.5133C24.4346 29.7289 24.2596 29.9039 24.0439 29.9039H18.3408C18.1252 29.9039 17.9502 29.7289 17.9502 29.5133C17.9502 29.2977 18.1252 29.1227 18.3408 29.1227H24.0439C24.2596 29.1227 24.4346 29.2977 24.4346 29.5133ZM27.7932 27.1461C27.7932 27.3617 27.6182 27.5367 27.4025 27.5367H18.34C18.1244 27.5367 17.9494 27.3617 17.9494 27.1461C17.9494 26.9305 18.1244 26.7555 18.34 26.7555H27.4025C27.6189 26.7555 27.7932 26.9305 27.7932 27.1461ZM9.86113 12.843V10.4984C9.86113 9.81563 10.4166 9.26016 11.0994 9.26016H13.4439C13.6072 9.26016 13.7666 9.29141 13.9166 9.35391C14.1158 9.43672 14.2104 9.66484 14.1275 9.86406C14.0447 10.0633 13.8158 10.1578 13.6174 10.075C13.5627 10.0523 13.5041 10.0406 13.4439 10.0406H11.0994C10.8471 10.0406 10.6424 10.2453 10.6424 10.4977V12.8422C10.6424 13.0945 10.8479 13.2992 11.0994 13.2992H13.4439C13.6963 13.2992 13.901 13.0945 13.901 12.8422V12.6539C13.901 12.4383 14.076 12.2633 14.2916 12.2633C14.5072 12.2633 14.6822 12.4383 14.6822 12.6539V12.8422C14.6822 13.525 14.1268 14.0805 13.4439 14.0805H11.0994C10.4166 14.0812 9.86113 13.5258 9.86113 12.843ZM15.7744 9.89688C15.8359 9.98018 15.8619 10.0845 15.8465 10.1869C15.8311 10.2893 15.7757 10.3814 15.6924 10.443L12.7072 12.6469C12.6393 12.6969 12.558 12.7234 12.4752 12.7234C12.4541 12.7234 12.4322 12.7219 12.4111 12.718C12.3595 12.7095 12.3101 12.6906 12.266 12.6625C12.2218 12.6345 12.1838 12.5978 12.1541 12.5547L11.1494 11.1039C11.0905 11.0187 11.0677 10.9136 11.0862 10.8117C11.1046 10.7097 11.1628 10.6193 11.2479 10.5602C11.4252 10.4375 11.6689 10.482 11.7916 10.6594L12.5666 11.7789L15.2275 9.81406C15.3111 9.75283 15.4156 9.72716 15.5181 9.74268C15.6205 9.75819 15.7127 9.81363 15.7744 9.89688ZM9.86113 21.1727V18.8281C9.86113 18.1453 10.4166 17.5898 11.0994 17.5898H13.4439C13.6072 17.5898 13.7666 17.6211 13.9166 17.6836C14.1158 17.7664 14.2104 17.9945 14.1275 18.1938C14.0447 18.393 13.8158 18.4875 13.6174 18.4047C13.5627 18.382 13.5041 18.3703 13.4439 18.3703H11.0994C10.8471 18.3703 10.6424 18.5758 10.6424 18.8273V21.1719C10.6424 21.4242 10.8479 21.6289 11.0994 21.6289H13.4439C13.6963 21.6289 13.901 21.4234 13.901 21.1719V20.9836C13.901 20.768 14.076 20.593 14.2916 20.593C14.5072 20.593 14.6822 20.768 14.6822 20.9836V21.1719C14.6822 21.8547 14.1268 22.4102 13.4439 22.4102H11.0994C10.4166 22.4109 9.86113 21.8555 9.86113 21.1727ZM15.7744 18.2266C15.8359 18.3099 15.8619 18.4142 15.8465 18.5166C15.8311 18.619 15.7757 18.7111 15.6924 18.7727L12.7072 20.9766C12.6393 21.0266 12.558 21.0531 12.4752 21.0531C12.4541 21.0531 12.4322 21.0516 12.4111 21.0477C12.3595 21.0391 12.3101 21.0203 12.266 20.9922C12.2218 20.9642 12.1838 20.9275 12.1541 20.8844L11.1494 19.4336C11.0905 19.3484 11.0677 19.2433 11.0862 19.1414C11.1046 19.0394 11.1628 18.949 11.2479 18.8898C11.4252 18.7672 11.6689 18.8117 11.7916 18.9891L12.5666 20.1086L15.2275 18.1438C15.3111 18.0825 15.4156 18.0569 15.5181 18.0724C15.6205 18.0879 15.7127 18.1433 15.7744 18.2266ZM14.683 29.3141V29.5023C14.683 30.1852 14.1275 30.7406 13.4447 30.7406H11.1002C10.4174 30.7406 9.86191 30.1852 9.86191 29.5023V27.1578C9.86191 26.475 10.4174 25.9195 11.1002 25.9195H13.4447C13.608 25.9195 13.7666 25.9508 13.9174 26.0133C14.013 26.053 14.089 26.129 14.1287 26.2246C14.1684 26.3202 14.1685 26.4277 14.1291 26.5234C14.0894 26.6191 14.0134 26.695 13.9178 26.7347C13.8221 26.7744 13.7147 26.7746 13.6189 26.7352C13.5635 26.7125 13.5057 26.7008 13.4455 26.7008H11.101C10.8486 26.7008 10.6439 26.9062 10.6439 27.1578V29.5023C10.6439 29.7547 10.8494 29.9594 11.101 29.9594H13.4455C13.6979 29.9594 13.9025 29.7539 13.9025 29.5023V29.3141C13.9025 29.0984 14.0775 28.9234 14.2932 28.9234C14.5088 28.9234 14.683 29.0984 14.683 29.3141ZM15.7744 26.557C15.8359 26.6403 15.8619 26.7447 15.8465 26.8471C15.8311 26.9495 15.7757 27.0416 15.6924 27.1031L12.7072 29.307C12.6393 29.357 12.558 29.3836 12.4752 29.3836C12.4541 29.3836 12.4322 29.382 12.4111 29.3781C12.3595 29.3696 12.3101 29.3508 12.266 29.3227C12.2218 29.2946 12.1838 29.258 12.1541 29.2148L11.1494 27.7641C11.0905 27.6789 11.0677 27.5738 11.0862 27.4718C11.1046 27.3699 11.1628 27.2794 11.2479 27.2203C11.4252 27.0977 11.6689 27.1422 11.7916 27.3195L12.5666 28.4391L15.2275 26.4742C15.2689 26.4437 15.3158 26.4217 15.3657 26.4093C15.4155 26.397 15.4674 26.3946 15.5181 26.4023C15.5689 26.41 15.6177 26.4276 15.6617 26.4541C15.7057 26.4807 15.744 26.5157 15.7744 26.557Z" fill="url(#paint0_linear_214_3366)"/>
<defs>
<linearGradient id="paint0_linear_214_3366" x1="5.46973" y1="20.3244" x2="35.7716" y2="30.359" gradientUnits="userSpaceOnUse">
<stop stop-color="#564C95"/>
<stop offset="0.18" stop-color="#9270E7"/>
<stop offset="0.365" stop-color="#ADD4F0"/>
<stop offset="0.63" stop-color="#564C95"/>
<stop offset="0.74" stop-color="#564C95"/>
<stop offset="0.885" stop-color="#9270E7" stop-opacity="0.85"/>
</linearGradient>
</defs>
</svg>
