<svg width="36" height="40" viewBox="0 0 36 40" fill="none" xmlns="http://www.w3.org/2000/svg">
<path d="M35.702 11.5523V28.4361C35.702 29.5318 35.1124 30.552 34.1651 31.1035L19.5363 39.5501C19.0684 39.8215 18.5377 39.9609 17.9958 39.9609C17.4616 39.9609 16.9295 39.8215 16.4615 39.5501L11.577 36.6602C10.8484 36.2534 11.204 36.1087 11.4448 36.0252C12.4178 35.6876 12.6146 35.6098 13.6533 35.0203C13.7616 34.9584 13.9045 34.9826 14.0163 35.0471L17.7688 37.2752C17.9048 37.3518 18.0969 37.3518 18.222 37.2752L32.8519 28.8309C32.9881 28.7531 33.0755 28.5979 33.0755 28.4362V11.5523C33.0755 11.3869 32.9881 11.2324 32.8484 11.1489L18.2245 2.71219C18.0897 2.63328 17.9097 2.63328 17.7739 2.71219L3.15329 11.1512C3.01125 11.2325 2.92165 11.3918 2.92165 11.5523V28.4361C2.92165 28.5977 3.01118 28.7493 3.15243 28.8259L7.16016 31.1427C9.3343 32.2288 10.666 30.9485 10.666 29.6617V12.9929C10.666 12.7572 10.8553 12.5713 11.0909 12.5713H12.9462C13.1781 12.5713 13.3703 12.7571 13.3703 12.9929V29.6618C13.3703 32.5638 11.7894 34.2285 9.03813 34.2285C8.19313 34.2285 7.52665 34.2285 5.66797 33.3134L1.83219 31.1035C0.884302 30.557 0.297974 29.5319 0.297974 28.4361V11.5523C0.297974 10.4552 0.884302 9.43117 1.83219 8.88547L16.4616 0.431718C17.3873 -0.0917973 18.6184 -0.0917973 19.5363 0.431718L34.1651 8.88547C35.1124 9.43344 35.702 10.4552 35.702 11.5523ZM23.0915 26.8255C18.7259 26.8255 17.7653 25.728 17.4435 23.5571C17.4063 23.3254 17.2077 23.1528 16.9698 23.1528H14.8366C14.5723 23.1528 14.3603 23.364 14.3603 23.6297C14.3603 26.4078 15.8723 29.7212 23.0915 29.7212C28.3185 29.7212 31.3156 27.6634 31.3156 24.0694C31.3156 20.5051 28.9073 19.5569 23.8384 18.8858C18.715 18.2078 18.1944 17.8587 18.1944 16.6586C18.1944 15.6695 18.6352 14.3476 22.43 14.3476C25.8186 14.3476 27.0679 15.078 27.5816 17.3613C27.6268 17.5766 27.8224 17.7336 28.0443 17.7336H30.1856C30.3184 17.7336 30.4446 17.6766 30.5348 17.5818C30.6253 17.4818 30.6734 17.3516 30.6607 17.215C30.3294 13.2793 27.7144 11.4459 22.4299 11.4459C17.7261 11.4459 14.9207 13.4314 14.9207 16.7586C14.9207 20.3693 17.712 21.368 22.2254 21.8134C27.6268 22.3433 28.046 23.1324 28.046 24.1953C28.046 26.039 26.5668 26.8255 23.0915 26.8255Z" fill="white"/>
</svg>
