<svg width="60" height="60" viewBox="0 0 60 60" fill="none" xmlns="http://www.w3.org/2000/svg">
<path d="M32.8125 7.5H27.1875C26.9389 7.5 26.7004 7.40123 26.5246 7.22541C26.3488 7.0496 26.25 6.81114 26.25 6.5625C26.25 6.31386 26.3488 6.0754 26.5246 5.89959C26.7004 5.72377 26.9389 5.625 27.1875 5.625H32.8125C33.0611 5.625 33.2996 5.72377 33.4754 5.89959C33.6512 6.0754 33.75 6.31386 33.75 6.5625C33.75 6.81114 33.6512 7.0496 33.4754 7.22541C33.2996 7.40123 33.0611 7.5 32.8125 7.5ZM40.3125 58.125H19.6875C18.4448 58.1235 17.2533 57.6292 16.3746 56.7504C15.4958 55.8717 15.0015 54.6802 15 53.4375V21.5625C15 21.3139 15.0988 21.0754 15.2746 20.8996C15.4504 20.7238 15.6889 20.625 15.9375 20.625C16.1861 20.625 16.4246 20.7238 16.6004 20.8996C16.7762 21.0754 16.875 21.3139 16.875 21.5625V53.4375C16.875 54.9881 18.1369 56.25 19.6875 56.25H40.3125C41.8631 56.25 43.125 54.9881 43.125 53.4375V21.5625C43.125 21.3139 43.2238 21.0754 43.3996 20.8996C43.5754 20.7238 43.8139 20.625 44.0625 20.625C44.3111 20.625 44.5496 20.7238 44.7254 20.8996C44.9012 21.0754 45 21.3139 45 21.5625V53.4375C45 56.0213 42.8981 58.125 40.3125 58.125Z" fill="white"/>
<path d="M44.0625 28.125C43.8139 28.125 43.5754 28.0262 43.3996 27.8504C43.2238 27.6746 43.125 27.4361 43.125 27.1875V6.5625C43.125 5.01188 41.8631 3.75 40.3125 3.75H19.6875C18.1369 3.75 16.875 5.01188 16.875 6.5625V27.1875C16.875 27.4361 16.7762 27.6746 16.6004 27.8504C16.4246 28.0262 16.1861 28.125 15.9375 28.125C15.6889 28.125 15.4504 28.0262 15.2746 27.8504C15.0988 27.6746 15 27.4361 15 27.1875V6.5625C15 3.97875 17.1019 1.875 19.6875 1.875H40.3125C42.8981 1.875 45 3.97875 45 6.5625V27.1875C45 27.4361 44.9012 27.6746 44.7254 27.8504C44.5496 28.0262 44.3111 28.125 44.0625 28.125ZM49.6875 11.3438C49.17 11.3438 48.75 11.0175 48.75 10.5V10.3125C48.75 10.0639 48.8488 9.8254 49.0246 9.64959C49.2004 9.47377 49.4389 9.375 49.6875 9.375C49.9361 9.375 50.1746 9.47377 50.3504 9.64959C50.5262 9.8254 50.625 10.0639 50.625 10.3125C50.625 10.83 50.205 11.3438 49.6875 11.3438ZM49.6875 15.0938C49.17 15.0938 48.75 14.7675 48.75 14.25V14.0625C48.75 13.8139 48.8488 13.5754 49.0246 13.3996C49.2004 13.2238 49.4389 13.125 49.6875 13.125C49.9361 13.125 50.1746 13.2238 50.3504 13.3996C50.5262 13.5754 50.625 13.8139 50.625 14.0625C50.625 14.58 50.205 15.0938 49.6875 15.0938ZM49.6875 18.8438C49.17 18.8438 48.75 18.5175 48.75 18V17.8125C48.75 17.5639 48.8488 17.3254 49.0246 17.1496C49.2004 16.9738 49.4389 16.875 49.6875 16.875C49.9361 16.875 50.1746 16.9738 50.3504 17.1496C50.5262 17.3254 50.625 17.5639 50.625 17.8125C50.625 18.33 50.205 18.8438 49.6875 18.8438ZM10.3125 43.0313C9.795 43.0313 9.375 42.705 9.375 42.1875V42C9.375 41.7514 9.47377 41.5129 9.64959 41.3371C9.8254 41.1613 10.0639 41.0625 10.3125 41.0625C10.5611 41.0625 10.7996 41.1613 10.9754 41.3371C11.1512 41.5129 11.25 41.7514 11.25 42C11.25 42.5175 10.83 43.0313 10.3125 43.0313ZM10.3125 46.7813C9.795 46.7813 9.375 46.455 9.375 45.9375V45.75C9.375 45.5014 9.47377 45.2629 9.64959 45.0871C9.8254 44.9113 10.0639 44.8125 10.3125 44.8125C10.5611 44.8125 10.7996 44.9113 10.9754 45.0871C11.1512 45.2629 11.25 45.5014 11.25 45.75C11.25 46.2675 10.83 46.7813 10.3125 46.7813ZM10.3125 50.5313C9.795 50.5313 9.375 50.205 9.375 49.6875V49.5C9.375 49.2514 9.47377 49.0129 9.64959 48.8371C9.8254 48.6613 10.0639 48.5625 10.3125 48.5625C10.5611 48.5625 10.7996 48.6613 10.9754 48.8371C11.1512 49.0129 11.25 49.2514 11.25 49.5C11.25 50.0175 10.83 50.5313 10.3125 50.5313Z" fill="white"/>
<path d="M46.5769 50.625C46.437 50.625 46.2989 50.5938 46.1727 50.5335C46.0465 50.4733 45.9354 50.3856 45.8475 50.2768C45.7596 50.1681 45.6971 50.041 45.6647 49.905C45.6322 49.7689 45.6306 49.6274 45.66 49.4906L46.2787 46.6219C46.3157 46.4496 46.4006 46.2912 46.5237 46.1652C46.6468 46.0391 46.803 45.9504 46.9744 45.9094C47.8791 45.6876 48.7438 45.3264 49.5375 44.8387C49.6872 44.7474 49.8594 44.6999 50.0348 44.7015C50.2101 44.7032 50.3815 44.754 50.5294 44.8481L52.3856 46.035L53.535 44.8762L52.3481 43.035C52.2529 42.8869 52.2011 42.7151 52.1988 42.5391C52.1965 42.363 52.2437 42.1899 52.335 42.0394C52.8228 41.246 53.1834 40.3812 53.4038 39.4763C53.445 39.3054 53.5332 39.1495 53.6585 39.0263C53.7838 38.903 53.941 38.8173 54.1125 38.7787L56.25 38.3044V36.6975L54.1144 36.2231C53.9429 36.1846 53.7856 36.0989 53.6604 35.9756C53.5351 35.8523 53.4469 35.6965 53.4056 35.5256C53.1845 34.621 52.8239 33.7563 52.3369 32.9625C52.2448 32.8127 52.197 32.6398 52.199 32.464C52.201 32.2881 52.2527 32.1165 52.3481 31.9687L53.5369 30.1106L52.3894 28.9631L50.5313 30.1519C50.3835 30.2465 50.2121 30.2975 50.0367 30.2992C49.8612 30.3008 49.6889 30.253 49.5394 30.1613C48.7453 29.6743 47.8807 29.3131 46.9763 29.0906C46.8049 29.0496 46.6486 28.9609 46.5255 28.8348C46.4024 28.7088 46.3175 28.5504 46.2806 28.3781L45.8194 26.25H45C44.7514 26.25 44.5129 26.1512 44.3371 25.9754C44.1613 25.7996 44.0625 25.5611 44.0625 25.3125C44.0625 25.0639 44.1613 24.8254 44.3371 24.6496C44.5129 24.4738 44.7514 24.375 45 24.375H46.575C46.7892 24.3754 46.9968 24.4491 47.1632 24.5838C47.3297 24.7185 47.445 24.9062 47.49 25.1156L47.9906 27.4275C48.6769 27.6356 49.35 27.9169 49.9988 28.2675L52.0125 26.9794C52.1926 26.8643 52.4066 26.8142 52.619 26.8374C52.8315 26.8606 53.0296 26.9557 53.1806 27.1069L55.395 29.3194C55.5459 29.4706 55.6406 29.6689 55.6635 29.8813C55.6863 30.0938 55.6359 30.3076 55.5206 30.4875L54.2325 32.5012C54.5831 33.1519 54.8644 33.825 55.0725 34.5131L57.3881 35.0269C57.8194 35.1225 58.125 35.505 58.125 35.9438V39.0562C58.1249 39.2696 58.052 39.4766 57.9184 39.643C57.7848 39.8094 57.5984 39.9252 57.39 39.9713L55.0744 40.485C54.8628 41.1816 54.5813 41.855 54.2344 42.495L55.5206 44.49C55.6371 44.6692 55.6885 44.883 55.6663 45.0956C55.6442 45.3082 55.5497 45.5068 55.3987 45.6581L53.1844 47.8894C53.0333 48.041 52.8349 48.1365 52.6222 48.16C52.4094 48.1836 52.1949 48.1337 52.0144 48.0188L50.0006 46.7306C49.3609 47.0769 48.6882 47.3583 47.9925 47.5706L47.4919 49.8825C47.447 50.0921 47.3317 50.28 47.1653 50.4151C46.9988 50.5501 46.7912 50.6242 46.5769 50.625Z" fill="white"/>
<path d="M47.6084 42.3337C47.4076 42.3334 47.2122 42.2686 47.051 42.1489C46.8899 42.0291 46.7714 41.8609 46.713 41.6688C46.6546 41.4766 46.6595 41.2709 46.7268 41.0817C46.7942 40.8926 46.9205 40.7301 47.0871 40.6181C47.8067 40.1331 48.3361 39.4138 48.5851 38.5826C48.8342 37.7513 48.7875 36.8595 48.4531 36.0587C48.1187 35.258 47.5172 34.5978 46.751 34.1906C45.9847 33.7833 45.101 33.6541 44.2502 33.825C44.1296 33.8497 44.0052 33.8505 43.8843 33.8271C43.7634 33.8038 43.6482 33.7569 43.5454 33.6891C43.4426 33.6213 43.3541 33.5339 43.2851 33.4319C43.2161 33.3299 43.1678 33.2153 43.1431 33.0947C43.1183 32.974 43.1176 32.8497 43.1409 32.7287C43.1642 32.6078 43.2111 32.4926 43.2789 32.3898C43.3467 32.287 43.4341 32.1985 43.5361 32.1295C43.6381 32.0605 43.7527 32.0122 43.8734 31.9875C44.6907 31.8217 45.5346 31.8396 46.3442 32.0397C47.1538 32.2398 47.9089 32.6172 48.5549 33.1446C49.2009 33.672 49.7217 34.3363 50.0798 35.0895C50.4378 35.8427 50.6241 36.666 50.6252 37.5C50.6254 38.4242 50.3978 39.3342 49.9625 40.1495C49.5272 40.9648 48.8977 41.6603 48.1296 42.1743C47.9755 42.278 47.7941 42.3335 47.6084 42.3337ZM15.0002 28.125C13.7917 28.1266 12.6147 27.7388 11.6439 27.019C10.673 26.2992 9.9599 25.2858 9.61018 24.129C9.26047 22.9721 9.29279 21.7333 9.70235 20.5963C10.1119 19.4592 10.8769 18.4844 11.884 17.8162C12.0909 17.6871 12.3399 17.6436 12.5783 17.6951C12.8167 17.7465 13.0257 17.8889 13.1608 18.0919C13.296 18.2949 13.3467 18.5425 13.3023 18.7823C13.2578 19.0221 13.1217 19.2352 12.9227 19.3762C12.2031 19.8593 11.6729 20.5765 11.4219 21.4061C11.171 22.2357 11.2149 23.1265 11.5461 23.9274C11.8773 24.7283 12.4755 25.39 13.2391 25.8C14.0027 26.21 14.8846 26.3432 15.7352 26.1768C15.9791 26.1287 16.232 26.179 16.4389 26.3167C16.6458 26.4544 16.7899 26.6683 16.8396 26.9118C16.8639 27.0325 16.8642 27.1568 16.8404 27.2776C16.8166 27.3983 16.7692 27.5132 16.7009 27.6156C16.6326 27.718 16.5448 27.806 16.4425 27.8744C16.3402 27.9428 16.2253 27.9904 16.1046 28.0143C15.7412 28.0884 15.3712 28.1254 15.0002 28.125Z" fill="white"/>
<path d="M15 35.625H13.425C13.2108 35.6246 13.0032 35.5509 12.8368 35.4162C12.6703 35.2814 12.555 35.0937 12.51 34.8843L12.0094 32.5725C11.3135 32.3605 10.6408 32.0791 10.0013 31.7325L7.9875 33.0206C7.80742 33.1357 7.59343 33.1857 7.38098 33.1626C7.16854 33.1394 6.97039 33.0443 6.81938 32.8931L4.605 30.6806C4.45408 30.5293 4.35936 30.3311 4.33651 30.1186C4.31367 29.9062 4.36407 29.6923 4.47937 29.5125L5.7675 27.4987C5.42086 26.8579 5.13945 26.1839 4.9275 25.4868L2.61187 24.9731C2.40302 24.927 2.21615 24.811 2.08216 24.6443C1.94818 24.4775 1.87509 24.2701 1.875 24.0562V20.9437C1.87508 20.7303 1.94797 20.5233 2.08161 20.357C2.21524 20.1906 2.40164 20.0748 2.61 20.0287L4.92563 19.515C5.13375 18.8268 5.415 18.1537 5.76562 17.505L4.48125 15.5081C4.36479 15.3288 4.31336 15.1151 4.33554 14.9025C4.35772 14.6899 4.45217 14.4913 4.60312 14.34L6.8175 12.1087C6.96804 11.9561 7.1665 11.86 7.37955 11.8364C7.59259 11.8129 7.80726 11.8633 7.9875 11.9793L10.0013 13.2675C10.6409 12.9212 11.3137 12.6398 12.0094 12.4275L12.51 10.1156C12.5327 9.99211 12.58 9.87446 12.649 9.7696C12.7181 9.66474 12.8075 9.57482 12.9119 9.50517C13.0164 9.43551 13.1338 9.38755 13.2571 9.36412C13.3804 9.3407 13.5072 9.34228 13.6299 9.36878C13.7527 9.39529 13.8688 9.44617 13.9715 9.51841C14.0742 9.59065 14.1613 9.68278 14.2277 9.78933C14.2941 9.89588 14.3384 10.0147 14.358 10.1387C14.3776 10.2627 14.3721 10.3894 14.3419 10.5112L13.7231 13.38C13.6862 13.5523 13.6013 13.7106 13.4782 13.8367C13.3551 13.9628 13.1989 14.0514 13.0275 14.0925C12.1223 14.3146 11.257 14.6758 10.4625 15.1631C10.3128 15.2544 10.1406 15.302 9.96522 15.3003C9.78989 15.2987 9.61854 15.2479 9.47063 15.1537L7.61437 13.9668L6.46313 15.1256L7.65 16.9668C7.74611 17.1146 7.79836 17.2865 7.80069 17.4628C7.80301 17.639 7.75531 17.8123 7.66313 17.9625C7.17532 18.7558 6.81471 19.6207 6.59438 20.5256C6.55313 20.6964 6.46489 20.8523 6.33963 20.9756C6.21437 21.0988 6.0571 21.1846 5.88562 21.2231L3.75 21.6956V23.3025L5.88562 23.7768C6.0571 23.8153 6.21437 23.9011 6.33963 24.0244C6.46489 24.1476 6.55313 24.3035 6.59438 24.4743C6.80625 25.3593 7.16812 26.2218 7.66313 27.0375C7.85063 27.3431 7.84687 27.7293 7.65187 28.0312L6.46313 29.8875L7.61063 31.035L9.46875 29.8462C9.61682 29.7525 9.78811 29.7019 9.96335 29.7003C10.1386 29.6986 10.3108 29.7459 10.4606 29.8368C11.2781 30.3337 12.1406 30.6937 13.0238 30.9075C13.1951 30.9485 13.3514 31.0372 13.4745 31.1632C13.5976 31.2893 13.6825 31.4477 13.7194 31.62L14.1806 33.75H15C15.2486 33.75 15.4871 33.8487 15.6629 34.0245C15.8387 34.2004 15.9375 34.4388 15.9375 34.6875C15.9375 34.9361 15.8387 35.1746 15.6629 35.3504C15.4871 35.5262 15.2486 35.625 15 35.625ZM29.0625 34.6875C28.92 34.6878 28.7793 34.6555 28.6511 34.5932C28.5229 34.5309 28.4107 34.4401 28.323 34.3277C28.2352 34.2154 28.1743 34.0845 28.1449 33.9451C28.1155 33.8056 28.1183 33.6613 28.1531 33.5231L30.0281 26.0231C30.057 25.9032 30.1095 25.7902 30.1825 25.6908C30.2555 25.5913 30.3476 25.5074 30.4533 25.4439C30.5591 25.3804 30.6764 25.3385 30.7985 25.3208C30.9205 25.3031 31.0449 25.3098 31.1644 25.3406C31.2839 25.3702 31.3964 25.4231 31.4955 25.4963C31.5945 25.5694 31.6781 25.6615 31.7415 25.767C31.8049 25.8726 31.8469 25.9896 31.865 26.1114C31.883 26.2332 31.8769 26.3574 31.8469 26.4768L29.9719 33.9768C29.9219 34.1801 29.805 34.3606 29.6401 34.4895C29.4752 34.6183 29.2718 34.6881 29.0625 34.6875ZM34.6875 34.6875C34.5022 34.6874 34.3211 34.6325 34.167 34.5296C34.013 34.4267 33.8928 34.2804 33.8218 34.1093C33.7508 33.9382 33.7321 33.7499 33.768 33.5681C33.8039 33.3863 33.8929 33.2193 34.0238 33.0881L37.1119 30L34.0256 26.9137C33.8549 26.7369 33.7604 26.5001 33.7625 26.2543C33.7646 26.0085 33.8632 25.7733 34.037 25.5995C34.2109 25.4257 34.446 25.3271 34.6918 25.325C34.9376 25.3228 35.1744 25.4173 35.3512 25.5881L39.1012 29.3381C39.277 29.5139 39.3757 29.7523 39.3757 30.0009C39.3757 30.2495 39.277 30.4879 39.1012 30.6637L35.3512 34.4137C35.1749 34.5891 34.9362 34.6875 34.6875 34.6875ZM25.3125 34.6875C25.0638 34.6875 24.8251 34.5891 24.6488 34.4137L20.8988 30.6637C20.723 30.4879 20.6243 30.2495 20.6243 30.0009C20.6243 29.7523 20.723 29.5139 20.8988 29.3381L24.6488 25.5881C24.8256 25.4173 25.0624 25.3228 25.3082 25.325C25.554 25.3271 25.7891 25.4257 25.963 25.5995C26.1368 25.7733 26.2354 26.0085 26.2375 26.2543C26.2396 26.5001 26.1451 26.7369 25.9744 26.9137L22.8881 30L25.9744 33.0862C26.1057 33.2172 26.1952 33.3842 26.2316 33.5661C26.268 33.748 26.2496 33.9367 26.1787 34.1081C26.1078 34.2795 25.9877 34.4261 25.8335 34.5292C25.6793 34.6324 25.498 34.6874 25.3125 34.6875Z" fill="white"/>
</svg>
