<svg width="60" height="60" viewBox="0 0 60 60" fill="none" xmlns="http://www.w3.org/2000/svg">
<g clip-path="url(#clip0_987_57)">
<path d="M51.8917 13.842C49.6562 10.3411 44.8495 8.88689 38.3725 9.72172C38.1436 9.74838 37.9013 9.78905 37.6724 9.81571C37.5782 9.60067 37.4841 9.38496 37.3763 9.16993C34.5891 3.25839 30.7784 0 26.6312 0C22.484 0 18.6599 3.25853 15.886 9.16993C15.7917 9.38496 15.684 9.60067 15.5898 9.81571C15.3474 9.77585 15.1185 9.74838 14.8897 9.72159C8.39974 8.87329 3.60607 10.3412 1.37061 13.8421C-0.864312 17.343 -0.177866 22.3114 3.2961 27.832C3.7637 28.5754 4.26244 29.2988 4.79098 30.0001C4.25238 30.727 3.75432 31.4408 3.29624 32.1676C-0.177866 37.6882 -0.864312 42.6703 1.37061 46.1581C3.18838 49.0126 6.71661 50.5073 11.4694 50.5073C12.6085 50.5011 13.7463 50.4248 14.876 50.278C15.1049 50.2512 15.3473 50.2107 15.5762 50.1839C15.6708 50.3996 15.765 50.6148 15.8728 50.8303C18.6601 56.7412 22.4707 60.0003 26.6175 60.0003C30.7647 60.0003 34.5891 56.7412 37.3625 50.8303C37.4568 50.6146 37.5645 50.3995 37.6588 50.184C37.9011 50.2244 38.13 50.2513 38.3593 50.278C39.4883 50.4309 40.6263 50.5076 41.7656 50.5074C46.5187 50.5074 50.0466 49.0126 51.8643 46.1581C54.0997 42.6572 53.4128 37.6882 49.9392 32.1676C49.4715 31.4245 48.9728 30.7014 48.4444 30.0001C48.983 29.2726 49.4812 28.5594 49.9392 27.832C53.4533 22.2983 54.1403 17.3292 51.8917 13.842ZM18.3234 10.3145C20.5988 5.46705 23.6284 2.693 26.6311 2.693C29.6338 2.693 32.6635 5.46705 34.939 10.3145C34.9406 10.3246 34.9453 10.334 34.9526 10.3412C32.0926 11.0292 29.3023 11.9801 26.6175 13.182C23.9351 11.9741 21.1444 11.0229 18.2828 10.3412C18.3097 10.3412 18.3097 10.3275 18.3233 10.3143L18.3234 10.3145ZM38.7633 30.0001C38.7638 32.1545 38.6471 34.3079 38.4129 36.4496C36.7347 37.8039 34.9814 39.0626 33.1616 40.2198C31.0614 41.5685 28.8754 42.7786 26.6175 43.8423C24.3639 42.7703 22.1785 41.5605 20.0738 40.2198C18.256 39.0595 16.503 37.8009 14.8224 36.4496C14.3553 32.1625 14.3553 27.8373 14.8224 23.5501C18.4517 20.6336 22.4105 18.1526 26.6176 16.158C28.8714 17.2295 31.0569 18.4391 33.1617 19.7798C34.9794 20.9401 36.7325 22.1987 38.4131 23.55C38.6471 25.6921 38.764 27.8453 38.7634 30.0001H38.7633ZM41.3348 26.0816C42.6535 27.3097 43.8947 28.6184 45.0513 30.0001C43.8945 31.3815 42.6533 32.69 41.3348 33.918C41.4158 32.6258 41.4563 31.3198 41.4563 30.0001C41.4563 28.6804 41.4159 27.3745 41.3348 26.0816ZM37.8607 40.2741C37.4356 42.6054 36.8186 44.8977 36.016 47.1275C33.9248 46.6552 31.8724 46.025 29.8764 45.2424C31.4966 44.3906 33.0821 43.4743 34.6291 42.4958C35.7337 41.782 36.8109 41.0414 37.8607 40.2741ZM23.3859 45.2424C21.3934 46.0351 19.3401 46.6655 17.2461 47.1275C16.4436 44.8977 15.8266 42.6054 15.4015 40.2741C16.4383 41.0414 17.5155 41.782 18.6331 42.482C20.2085 43.4919 21.7974 44.4075 23.3859 45.2424ZM11.9273 33.918C10.6089 32.6899 9.36776 31.3814 8.21082 30.0001C9.36761 28.6185 10.6088 27.3098 11.9273 26.0816C11.8464 27.3745 11.8058 28.6804 11.8058 30.0001C11.8058 31.3198 11.8462 32.6258 11.9273 33.918ZM15.4015 19.7262C15.8265 17.3948 16.4435 15.1025 17.2462 12.8728C19.3376 13.3446 21.3901 13.9747 23.3859 14.7579C21.7656 15.6097 20.1801 16.5259 18.6331 17.5045C17.5349 18.2139 16.4572 18.9548 15.4015 19.7262ZM34.6161 17.5045C33.0539 16.5083 31.4649 15.579 29.8627 14.7579C31.8553 13.9651 33.9087 13.3347 36.003 12.8728C36.8052 15.1027 37.4222 17.3949 37.8477 19.7262C36.8109 18.9587 35.7337 18.2181 34.6161 17.5045ZM5.57209 26.3914C2.71711 21.8669 2.01706 17.8142 3.63286 15.2828C4.92563 13.263 7.72649 12.1721 11.5099 12.1721C12.5229 12.1764 13.5349 12.2443 14.5395 12.3741H14.5663C13.4771 15.5412 12.7191 18.8127 12.3046 22.1362C10.2296 23.8673 8.29775 25.7632 6.52783 27.8052C6.19121 27.3477 5.86818 26.8764 5.57209 26.3914ZM14.5263 47.6125C13.5216 47.7429 12.5098 47.8103 11.4967 47.8144C7.71275 47.8144 4.91204 46.7373 3.61967 44.7038C2.00387 42.1723 2.70405 38.1197 5.55835 33.5951C5.85458 33.1239 6.17801 32.6389 6.51464 32.1676C8.2841 34.2099 10.2158 36.1057 12.2909 37.8366C12.7057 41.1601 13.4638 44.4316 14.5531 47.5987C14.5531 47.6125 14.5395 47.6125 14.5263 47.6125ZM34.939 49.6858C32.6635 54.5332 29.6339 57.3073 26.6311 57.3073C23.6282 57.3073 20.5988 54.5332 18.3233 49.6858C18.3217 49.6756 18.317 49.6662 18.3097 49.6589C21.1698 48.971 23.96 48.0199 26.6448 46.8178C29.327 48.026 32.1177 48.9773 34.9794 49.6589C34.9526 49.6589 34.9526 49.6721 34.939 49.6858ZM47.6902 33.6089C50.5452 38.1327 51.2452 42.1859 49.6294 44.7175C48.0136 47.2484 44.0414 48.3125 38.736 47.6125H38.709C39.7984 44.4454 40.5566 41.1738 40.9713 37.8504C43.0463 36.1193 44.9781 34.2235 46.7478 32.1813C47.0712 32.6526 47.3941 33.1239 47.6903 33.6089H47.6902ZM40.9577 22.1499C40.5433 18.8264 39.7853 15.5549 38.696 12.3878H38.7229C44.0278 11.7008 48 12.7513 49.6158 15.2828C51.2316 17.8142 50.5314 21.8669 47.677 26.3914C47.3809 26.8627 47.0575 27.3477 46.7208 27.8189C44.9594 25.7735 43.0318 23.8774 40.9577 22.1499Z" fill="white"/>
<path d="M26.6311 24.6679C23.6863 24.6679 21.2988 27.0552 21.2988 30C21.2988 32.9451 23.6862 35.3319 26.6311 35.3319C29.5762 35.3319 31.9635 32.9451 31.9635 30.0001C31.9614 27.0557 29.5751 24.67 26.6311 24.6679ZM26.6311 32.6389C25.1736 32.6389 23.9918 31.4576 23.9918 30.0001C23.9918 28.5427 25.1736 27.3607 26.6311 27.3607C28.0886 27.3607 29.2705 28.5427 29.2705 30.0001C29.2678 31.4565 28.0876 32.6368 26.6311 32.6389Z" fill="white"/>
</g>
<defs>
<clipPath id="clip0_987_57">
<rect width="60" height="60" fill="white"/>
</clipPath>
</defs>
</svg>
