<svg width="60" height="60" viewBox="0 0 60 60" fill="none" xmlns="http://www.w3.org/2000/svg">
<g clip-path="url(#clip0_1_1167)">
<path d="M52.4423 7.55766C47.5687 2.68406 41.089 0 34.1966 0C27.3042 0 20.8244 2.68406 15.9509 7.55766C15.5943 7.91438 15.2479 8.28129 14.9123 8.65793C14.8349 8.74422 14.7753 8.84494 14.737 8.9543C14.6986 9.06367 14.6822 9.17954 14.6887 9.29527C14.6952 9.41099 14.7244 9.5243 14.7748 9.62868C14.8252 9.73307 14.8957 9.82648 14.9822 9.90357C15.0688 9.98066 15.1697 10.0399 15.2792 10.0779C15.3887 10.1159 15.5046 10.1319 15.6203 10.125C15.736 10.1181 15.8492 10.0884 15.9535 10.0377C16.0577 9.98697 16.1508 9.91616 16.2276 9.82934C16.5407 9.47802 16.8637 9.13577 17.1964 8.80301C21.7373 4.26211 27.7748 1.76121 34.1967 1.76121C40.6186 1.76121 46.6559 4.26199 51.1968 8.80301C60.5708 18.177 60.5708 33.4295 51.1968 42.8034C46.6559 47.3443 40.6184 49.8452 34.1967 49.8452C27.7748 49.8452 21.7373 47.3445 17.1964 42.8034C13.2483 38.8553 10.7854 33.6251 10.2617 28.0764C9.7447 22.5993 11.1262 17.0746 14.1517 12.5198C14.2766 12.3253 14.32 12.0894 14.2725 11.8631C14.225 11.6368 14.0904 11.4382 13.8978 11.3103C13.7052 11.1824 13.47 11.1353 13.243 11.1793C13.016 11.2233 12.8154 11.3547 12.6845 11.5453C9.43661 16.4348 7.95337 22.3645 8.50825 28.242C8.93739 32.7888 10.5807 37.1354 13.219 40.8233L10.6329 43.4094C10.4677 43.2444 10.2437 43.1518 10.0103 43.1519C9.77683 43.1519 9.55295 43.2447 9.38786 43.4098L1.48931 51.3083C-0.496436 53.2939 -0.496436 56.525 1.48931 58.5107C2.482 59.5036 3.78618 60 5.09036 60C6.39454 60 7.69872 59.5036 8.69153 58.5108L10.9238 56.2785C11.0056 56.1967 11.0705 56.0996 11.1147 55.9928C11.159 55.8859 11.1818 55.7714 11.1818 55.6557C11.1818 55.5401 11.159 55.4256 11.1147 55.3187C11.0705 55.2119 11.0056 55.1148 10.9238 55.033C10.8421 54.9512 10.745 54.8864 10.6381 54.8421C10.5313 54.7978 10.4168 54.7751 10.3011 54.7751C10.1855 54.7751 10.0709 54.7978 9.96408 54.8421C9.85723 54.8864 9.76015 54.9512 9.67837 55.033L7.44606 57.2653C6.81677 57.8946 5.98017 58.2411 5.09024 58.2411C4.20032 58.2411 3.36372 57.8946 2.73442 57.2653C2.10513 56.636 1.7586 55.7994 1.7586 54.9095C1.7586 54.0196 2.10513 53.183 2.73442 52.5537L10.0102 45.2779L14.7218 49.9894L12.1691 52.5421C12.0873 52.6239 12.0224 52.7209 11.9782 52.8278C11.9339 52.9346 11.9111 53.0492 11.9111 53.1648C11.9111 53.2805 11.9339 53.395 11.9782 53.5018C12.0224 53.6087 12.0873 53.7058 12.1691 53.7875C12.2509 53.8693 12.3479 53.9342 12.4548 53.9784C12.5616 54.0227 12.6762 54.0455 12.7918 54.0455C12.9075 54.0455 13.022 54.0227 13.1288 53.9784C13.2357 53.9342 13.3328 53.8693 13.4145 53.7875L16.5899 50.6122C16.7549 50.4471 16.8477 50.2233 16.8478 49.9898C16.8479 49.7563 16.7552 49.5324 16.5902 49.3672L19.1713 46.7862C23.5234 49.9166 28.7295 51.6067 34.1963 51.6067C41.0887 51.6067 47.5684 48.9226 52.4421 44.049C57.3158 39.1754 59.9999 32.6955 59.9999 25.8033C59.9999 18.911 57.3158 12.4312 52.4423 7.55766ZM15.345 48.1216L11.8781 44.6548L14.3013 42.2316C14.8219 42.8633 15.3724 43.4697 15.9508 44.0489C16.5298 44.6275 17.1355 45.1787 17.7658 45.7008L15.345 48.1216Z" fill="white"/>
<path d="M43.2057 44.5774C45.3214 43.5621 47.2432 42.1984 48.9175 40.5241C57.0345 32.407 57.0345 19.1996 48.9175 11.0825C40.8003 2.96543 27.593 2.96555 19.4759 11.0825C11.3589 19.1996 11.3589 32.407 19.4759 40.5241C23.4283 44.4765 28.7644 46.6192 34.2213 46.6191C36.093 46.6193 37.9562 46.3667 39.7603 45.8681C39.9845 45.8052 40.1747 45.6559 40.2892 45.453C40.4037 45.2502 40.4332 45.0102 40.3711 44.7857C40.3091 44.5611 40.1606 44.3703 39.9582 44.255C39.7558 44.1397 39.5159 44.1093 39.2912 44.1704C32.6804 45.997 25.5652 44.1226 20.7214 39.2787C13.291 31.8483 13.291 19.7583 20.7214 12.328C28.1517 4.89785 40.2414 4.89762 47.6721 12.328C55.1025 19.7584 55.1025 31.8484 47.6722 39.2787C46.1387 40.812 44.3797 42.0605 42.4437 42.9895C42.2355 43.092 42.0762 43.2725 42.0003 43.4918C41.9245 43.7111 41.9382 43.9515 42.0386 44.1607C42.139 44.3699 42.3179 44.531 42.5365 44.6091C42.755 44.6871 42.9955 44.6757 43.2057 44.5774Z" fill="white"/>
<path d="M35.2574 21.7903C35.491 21.7903 35.715 21.6975 35.8801 21.5324C36.0453 21.3672 36.1381 21.1432 36.1381 20.9097C36.1381 20.6761 36.0453 20.4521 35.8801 20.2869C35.715 20.1218 35.491 20.029 35.2574 20.029H31.1335C30.8999 20.029 30.6759 20.1218 30.5107 20.2869C30.3456 20.4521 30.2528 20.6761 30.2528 20.9097V30.6969C30.2528 30.9305 30.3456 31.1545 30.5107 31.3197C30.6759 31.4848 30.8999 31.5776 31.1335 31.5776H35.2574C35.491 31.5776 35.715 31.4848 35.8801 31.3197C36.0453 31.1545 36.1381 30.9305 36.1381 30.6969C36.1381 30.4634 36.0453 30.2394 35.8801 30.0742C35.715 29.909 35.491 29.8163 35.2574 29.8163H32.0141V26.684H34.9533C35.1869 26.684 35.4109 26.5912 35.576 26.426C35.7412 26.2609 35.834 26.0369 35.834 25.8033C35.834 25.5697 35.7412 25.3457 35.576 25.1806C35.4109 25.0154 35.1869 24.9226 34.9533 24.9226H32.0141V21.7903H35.2574ZM24.8183 29.8614C23.7383 29.8614 22.6956 29.4222 22.0288 28.6865C21.9512 28.6008 21.8574 28.5312 21.7528 28.4817C21.6483 28.4323 21.535 28.4039 21.4195 28.3983C21.304 28.3926 21.1885 28.4097 21.0796 28.4487C20.9707 28.4877 20.8705 28.5477 20.7849 28.6254C20.6992 28.7031 20.6296 28.7969 20.5802 28.9014C20.5307 29.006 20.5023 29.1192 20.4967 29.2347C20.491 29.3502 20.5081 29.4657 20.5471 29.5746C20.5861 29.6835 20.6461 29.7837 20.7238 29.8694C21.7189 30.9673 23.2496 31.6227 24.8185 31.6227C26.6974 31.6227 28.3346 30.3904 28.6264 28.7561C28.9629 26.8708 27.4805 25.6081 25.981 25.0549C24.7098 24.5861 23.5308 24.0742 23.2333 23.9434C22.9177 23.7122 22.7645 23.3427 22.8218 22.9431C22.8941 22.4401 23.2806 22.0363 23.8558 21.8631C25.4417 21.3858 26.8736 22.5348 26.9008 22.557C27.0804 22.7024 27.31 22.7713 27.5401 22.749C27.7701 22.7266 27.9821 22.6148 28.1304 22.4375C28.2787 22.2602 28.3514 22.0318 28.3328 21.8014C28.3142 21.571 28.2058 21.3572 28.0309 21.206C27.9437 21.1327 25.8649 19.4187 23.3479 20.1767C22.1176 20.5472 21.248 21.5113 21.0784 22.6929C20.9206 23.7929 21.3969 24.8509 22.3217 25.4538C22.3606 25.4792 22.4015 25.5014 22.4439 25.5204C22.5006 25.5457 23.8504 26.1465 25.3715 26.7076C26.4635 27.1104 27.0178 27.7443 26.8924 28.4467C26.7697 29.1325 26.0012 29.8614 24.8183 29.8614ZM48.6439 25.8033C48.6439 22.5945 46.0333 19.9839 42.8243 19.9839C39.6155 19.9839 37.005 22.5945 37.005 25.8033C37.005 29.0121 39.6155 31.6226 42.8243 31.6226C46.0333 31.6227 48.6439 29.0121 48.6439 25.8033ZM38.7665 25.8033C38.7665 23.5657 40.5869 21.7452 42.8244 21.7452C45.0621 21.7452 46.8826 23.5656 46.8826 25.8033C46.8826 28.041 45.0621 29.8614 42.8244 29.8614C40.5869 29.8614 38.7665 28.041 38.7665 25.8033Z" fill="white"/>
</g>
<defs>
<clipPath id="clip0_1_1167">
<rect width="60" height="60" fill="white"/>
</clipPath>
</defs>
</svg>
