<svg width="55" height="48" viewBox="0 0 55 48" fill="none" xmlns="http://www.w3.org/2000/svg">
<path d="M40.8475 16.4502H47.0236C48.794 16.4502 50.2343 15.1699 50.2343 13.5963V6.30944C50.2343 4.73575 48.794 3.4555 47.0236 3.4555H39.3586C38.6932 1.98738 37.0868 1 35.2714 1H15.1062C12.6764 1 10.6996 2.75716 10.6996 4.91697V19.2727H6.31059C4.5402 19.2727 3.09991 20.553 3.09991 22.1267V29.4135C3.09991 30.9872 4.5402 32.2674 6.31059 32.2674H10.6996V43.5829C10.6996 45.7427 12.6764 47.4999 15.1062 47.4999H35.2714C37.7011 47.4999 39.6778 45.7427 39.6778 43.5829V42.3073H41.9711C42.1401 42.3073 42.304 42.2557 42.4354 42.1612C42.5669 42.0667 42.6578 41.935 42.6931 41.788L43.0127 40.4567L44.0889 40.0614L45.3747 40.8036C45.5167 40.8856 45.686 40.9216 45.8543 40.9059C46.0226 40.8901 46.1797 40.8234 46.2993 40.7169L48.4428 38.8088C48.5623 38.7025 48.6371 38.5629 48.6547 38.4135C48.6723 38.264 48.6317 38.1137 48.5396 37.9877L47.7048 36.8448L48.1491 35.8908L49.6498 35.6067C49.8152 35.5754 49.9635 35.4945 50.0698 35.3777C50.1762 35.2608 50.2342 35.1151 50.2342 34.9648V32.2701C50.2342 32.1198 50.1761 31.9741 50.0697 31.8572C49.9634 31.7404 49.8151 31.6596 49.6497 31.6282L48.1492 31.3442L47.7044 30.3877L48.5395 29.2446C48.6317 29.1185 48.6723 28.9681 48.6546 28.8186C48.6369 28.669 48.562 28.5294 48.4424 28.4231L46.2989 26.5177C46.1792 26.4114 46.0222 26.3449 45.8539 26.3292C45.6857 26.3135 45.5165 26.3495 45.3746 26.4314L44.0888 27.1737L43.0128 26.7783L42.6931 25.4445C42.6578 25.2975 42.5669 25.1657 42.4355 25.0711C42.304 24.9766 42.14 24.925 41.9709 24.925H39.6777V17.5472L40.8475 16.4502ZM48.7578 6.30944V13.5963C48.7578 14.4462 47.9798 15.1377 47.0236 15.1377H40.5301C40.4298 15.1377 40.3306 15.1559 40.2385 15.1911C40.1463 15.2263 40.0632 15.2778 39.9943 15.3425L38.5568 16.6908V15.794C38.5568 15.62 38.479 15.4531 38.3406 15.33C38.2021 15.2069 38.0143 15.1378 37.8185 15.1378H36.7692C35.813 15.1378 35.0351 14.4463 35.0351 13.5963V6.30944C35.0351 5.4595 35.813 4.768 36.7692 4.768H47.0237C47.9798 4.768 48.7578 5.4595 48.7578 6.30944ZM20.1465 2.3125H30.2309V3.52178C30.2309 3.69906 30.0624 3.84878 29.863 3.84878H20.5145C20.3151 3.84878 20.1466 3.69897 20.1466 3.52178L20.1465 2.3125ZM4.57648 29.4135V22.1267C4.57648 21.2767 5.35441 20.5852 6.31059 20.5852H12.8429C13.1532 21.8714 14.4426 22.8388 15.9821 22.8388H18.2992V29.4135C18.2992 30.2634 17.5213 30.9549 16.5651 30.9549H15.5158C15.32 30.9549 15.1322 31.024 14.9938 31.1471C14.8553 31.2702 14.7775 31.4371 14.7775 31.6112V32.5079L13.34 31.1597C13.271 31.0949 13.1879 31.0434 13.0958 31.0082C13.0036 30.973 12.9044 30.9548 12.8041 30.9548H6.31059C5.35441 30.955 4.57648 30.2635 4.57648 29.4135ZM15.9821 21.5263C15.0259 21.5263 14.248 20.836 14.248 19.9875V12.698C14.248 11.8481 15.0259 11.1566 15.9821 11.1566H26.2366C27.1928 11.1566 27.9707 11.8481 27.9707 12.698V19.9875C27.9707 20.836 27.1928 21.5263 26.2366 21.5263H25.1873C24.9915 21.5263 24.8037 21.5954 24.6652 21.7185C24.5268 21.8416 24.449 22.0085 24.449 22.1825V23.0793L23.0115 21.7311C22.9425 21.6664 22.8594 21.6149 22.7672 21.5797C22.6751 21.5444 22.5759 21.5263 22.4756 21.5263H15.9821ZM12.4866 32.2675L14.9799 34.6058C15.0815 34.7012 15.2129 34.7673 15.3572 34.7955C15.5015 34.8237 15.6519 34.8128 15.7892 34.7642C15.9264 34.7156 16.0441 34.6315 16.1269 34.5228C16.2098 34.414 16.2541 34.2857 16.254 34.1544V32.2675H16.565C18.3354 32.2675 19.7757 30.9872 19.7757 29.4136V22.8389H22.158L24.6513 25.1773C24.7529 25.2726 24.8843 25.3387 25.0286 25.367C25.1728 25.3952 25.3233 25.3843 25.4606 25.3357C25.5978 25.2871 25.7155 25.203 25.7983 25.0942C25.8812 24.9855 25.9254 24.8572 25.9254 24.7259V22.839H26.2364C28.0068 22.839 29.4471 21.5598 29.4471 19.9877V12.6982C29.4471 11.1245 28.0068 9.84428 26.2364 9.84428H15.9821C14.2117 9.84428 12.7714 11.1245 12.7714 12.6982V19.2729H12.1761V4.91697C12.1761 3.48091 13.4905 2.3125 15.1062 2.3125H18.6701V3.52178C18.6701 4.42581 19.4975 5.16128 20.5145 5.16128H29.863C30.8802 5.16128 31.7075 4.42581 31.7075 3.52178V2.3125H35.2714C36.2623 2.3125 37.159 2.75613 37.6937 3.4555H36.7691C34.9987 3.4555 33.5584 4.73575 33.5584 6.30944V13.5963C33.5584 15.1699 34.9987 16.4502 36.7691 16.4502H37.0801V18.3371C37.0801 18.5111 37.1579 18.678 37.2963 18.8011C37.4347 18.9241 37.6225 18.9933 37.8182 18.9933C37.9534 18.9931 38.0859 18.9598 38.2013 18.8973V40.9735H12.1761V32.2675H12.4866ZM39.6778 30.9137C39.9319 30.856 40.1931 30.8269 40.4554 30.827C42.1863 30.827 43.5946 32.0789 43.5946 33.6176C43.5946 35.1562 42.1863 36.4081 40.4554 36.4081C40.1913 36.4081 39.9312 36.379 39.6778 36.3214V30.9137ZM35.2714 46.1875H15.1062C13.4906 46.1875 12.1761 45.0191 12.1761 43.583V42.2861H38.2013V43.583C38.2013 45.0191 36.8869 46.1875 35.2714 46.1875ZM41.3735 26.2376L41.6496 27.3897C41.6745 27.4939 41.7277 27.591 41.8043 27.6729C41.881 27.7547 41.979 27.8187 42.0897 27.8594L43.8835 28.5184C43.9941 28.559 44.1142 28.5752 44.2333 28.5654C44.3525 28.5556 44.4672 28.5203 44.5676 28.4624L45.6775 27.8216L46.9756 28.9755L46.2549 29.9622C46.1897 30.0514 46.1499 30.1534 46.1389 30.2593C46.1279 30.3652 46.146 30.4719 46.1917 30.5702L46.933 32.1648C46.9788 32.2632 47.0509 32.3502 47.143 32.4184C47.2351 32.4866 47.3444 32.5338 47.4616 32.556L48.7576 32.8013V34.4336L47.4615 34.679C47.3444 34.7012 47.2352 34.7484 47.1431 34.8165C47.0511 34.8846 46.9791 34.9715 46.9333 35.0699L46.1919 36.6617C46.1461 36.76 46.1279 36.8668 46.1389 36.9728C46.1498 37.0788 46.1897 37.1808 46.2549 37.2701L46.9759 38.257L45.6772 39.413L44.5676 38.7725C44.4672 38.7146 44.3525 38.6793 44.2333 38.6695C44.1142 38.6597 43.9941 38.6758 43.8835 38.7164L42.0897 39.3753C41.979 39.416 41.8811 39.48 41.8045 39.5618C41.7278 39.6437 41.6747 39.7408 41.6497 39.8449L41.3737 40.9946H39.6778V37.6621C39.9334 37.7008 40.1931 37.7203 40.4554 37.7203C43.0005 37.7203 45.0712 35.8797 45.0712 33.6173C45.0712 31.3548 43.0005 29.5143 40.4554 29.5143C40.1931 29.5143 39.9334 29.5338 39.6778 29.5725V26.2373H41.3735V26.2376ZM13.8175 29.6817C13.9234 29.6817 14.0281 29.6615 14.1244 29.6224C14.2207 29.5832 14.3065 29.5262 14.3758 29.455C14.4451 29.3839 14.4964 29.3003 14.5262 29.21C14.5559 29.1196 14.5635 29.0247 14.5483 28.9315L14.2207 26.9181L15.8177 25.4597C15.9114 25.3741 15.9771 25.2674 16.0076 25.151C16.0381 25.0346 16.0323 24.9131 15.9908 24.7994C15.9493 24.6858 15.8737 24.5843 15.7721 24.5061C15.6705 24.4278 15.5468 24.3757 15.4143 24.3554L13.1593 24.0091L12.091 22.2085C12.0283 22.1028 11.9344 22.0144 11.8193 21.9527C11.7042 21.8909 11.5724 21.8583 11.438 21.8583C11.3036 21.8583 11.1717 21.8909 11.0566 21.9527C10.9415 22.0144 10.8476 22.1028 10.7849 22.2085L9.7166 24.0091L7.46157 24.3554C7.32907 24.3757 7.20532 24.4277 7.10369 24.506C7.00206 24.5842 6.9264 24.6857 6.88489 24.7993C6.84337 24.913 6.83758 25.0346 6.86814 25.151C6.89869 25.2674 6.96443 25.3741 7.05826 25.4597L8.65516 26.9181L8.32758 28.9315C8.30833 29.0498 8.32578 29.1705 8.37804 29.2806C8.43031 29.3907 8.51541 29.4861 8.62416 29.5563C8.73292 29.6266 8.86123 29.6692 8.99521 29.6794C9.1292 29.6895 9.26377 29.667 9.38438 29.6141L11.438 28.7151L13.4915 29.6141C13.5929 29.6586 13.7045 29.6818 13.8175 29.6817ZM12.7073 26.7861L12.8863 27.8863L11.764 27.395C11.6625 27.3506 11.5509 27.3275 11.4377 27.3275C11.3246 27.3275 11.213 27.3506 11.1115 27.395L9.98934 27.8862L10.1683 26.7861C10.1845 26.6866 10.1748 26.585 10.1398 26.4894C10.1048 26.3937 10.0456 26.3065 9.96667 26.2344L9.09328 25.4368L10.3257 25.2474C10.437 25.2303 10.5425 25.1907 10.6339 25.1317C10.7254 25.0727 10.8003 24.9958 10.853 24.9069L11.4376 23.9214L12.0223 24.9069C12.075 24.9958 12.1499 25.0727 12.2413 25.1317C12.3328 25.1907 12.4382 25.2303 12.5496 25.2474L13.7821 25.4368L12.9087 26.2344C12.8299 26.3065 12.7707 26.3938 12.7358 26.4894C12.7008 26.5851 12.6911 26.6866 12.7073 26.7861ZM41.5573 13.4165C41.6621 13.4647 41.7784 13.4898 41.8964 13.4898C42.0144 13.4898 42.1306 13.4647 42.2355 13.4165C46.0159 11.6793 46.4398 9.81128 46.356 8.85241C46.2637 7.79575 45.4566 6.86472 44.3474 6.53566C43.446 6.268 42.5435 6.44519 41.8965 7.00853C41.25 6.44538 40.3471 6.26809 39.4455 6.53566C38.3363 6.86472 37.5291 7.79575 37.4368 8.85241C37.353 9.81128 37.777 11.6793 41.5573 13.4165ZM38.9089 8.95403C38.9632 8.33313 39.4521 7.91725 39.9129 7.78056C40.0032 7.75375 40.1258 7.72787 40.2621 7.72787C40.47 7.72787 40.71 7.78797 40.9169 7.99638L41.3411 8.42669C41.4104 8.49698 41.4957 8.55331 41.5915 8.59191C41.6873 8.6305 41.7912 8.65046 41.8963 8.65046C42.0015 8.65046 42.1054 8.6305 42.2011 8.59191C42.2969 8.55331 42.3823 8.49698 42.4516 8.42669L42.8751 7.99722C43.2182 7.65072 43.6521 7.71278 43.8799 7.78047C44.3406 7.91716 44.8297 8.33303 44.884 8.95394C44.9734 9.97741 43.8893 11.11 41.8965 12.0894C39.9035 11.1101 38.8195 9.97759 38.9089 8.95403ZM21.513 36.0863C21.513 35.7249 21.8448 35.4299 22.2515 35.4299C22.6581 35.4299 22.9899 35.7248 22.9899 36.0863C22.9899 36.4477 22.6581 36.7427 22.2515 36.7427C21.8448 36.7427 21.513 36.4477 21.513 36.0863ZM24.4488 36.0863C24.4488 35.7249 24.7806 35.4299 25.1873 35.4299C25.5939 35.4299 25.9258 35.7248 25.9258 36.0863C25.9258 36.4477 25.594 36.7427 25.1873 36.7427C24.7807 36.7428 24.4488 36.4477 24.4488 36.0863ZM27.3876 36.0863C27.3876 35.7249 27.7194 35.4299 28.1261 35.4299C28.5328 35.4299 28.8646 35.7248 28.8646 36.0863C28.8646 36.4477 28.5328 36.7427 28.1261 36.7427C27.7194 36.7427 27.3876 36.4477 27.3876 36.0863ZM24.6029 19.5513L25.6433 16.0987C25.7258 15.8243 25.6615 15.5365 25.467 15.3091C25.3715 15.1967 25.2479 15.1056 25.1059 15.0431C24.9639 14.9806 24.8075 14.9483 24.6491 14.949H22.4634V13.3703C22.4634 12.8663 22.0021 12.4562 21.4351 12.4562H21.3096C20.9328 12.4562 20.5972 12.631 20.4099 12.927L19.2475 14.789C19.1439 14.7594 19.0356 14.7442 18.9268 14.7442H17.5934C17.0132 14.7442 16.5412 15.1638 16.5412 15.6796V19.1343C16.5412 19.65 17.0132 20.0695 17.5934 20.0695H18.9268C19.1617 20.0695 19.3782 19.9998 19.5535 19.8837L20.0558 20.1411C20.168 20.1986 20.2952 20.2289 20.4246 20.2289H23.6086C24.0688 20.2291 24.4767 19.9532 24.6029 19.5513ZM18.5026 18.7572H18.0179V16.0569H18.5026V18.7572ZM20.6224 18.9166L19.9791 18.5869V16.3226L20.987 14.7079V15.6052C20.987 15.7793 21.0648 15.9462 21.2032 16.0693C21.3417 16.1923 21.5295 16.2615 21.7253 16.2615H24.0657L23.2656 18.9166H20.6224ZM27.9734 44.2367C27.9734 44.4108 27.8957 44.5777 27.7572 44.7008C27.6188 44.8239 27.431 44.893 27.2352 44.893H23.1424C22.9465 44.893 22.7588 44.8239 22.6203 44.7008C22.4819 44.5777 22.4041 44.4108 22.4041 44.2367C22.4041 44.0627 22.4819 43.8958 22.6203 43.7727C22.7588 43.6496 22.9465 43.5805 23.1424 43.5805H27.2352C27.431 43.5805 27.6188 43.6496 27.7572 43.7727C27.8957 43.8958 27.9734 44.0627 27.9734 44.2367Z" fill="white"/>
</svg>
