<svg width="60" height="60" viewBox="0 0 60 60" fill="none" xmlns="http://www.w3.org/2000/svg">
<path d="M43 0H17C15.6744 0.00158786 14.4036 0.528882 13.4662 1.46622C12.5289 2.40356 12.0016 3.67441 12 5V55C12.0016 56.3256 12.5289 57.5964 13.4662 58.5338C14.4036 59.4711 15.6744 59.9984 17 60H43C44.3256 59.9984 45.5964 59.4711 46.5338 58.5338C47.4711 57.5964 47.9984 56.3256 48 55V5C47.9984 3.67441 47.4711 2.40356 46.5338 1.46622C45.5964 0.528882 44.3256 0.00158786 43 0ZM24 2H36V3C36 3.26522 35.8946 3.51957 35.7071 3.70711C35.5196 3.89464 35.2652 4 35 4H25C24.7348 4 24.4804 3.89464 24.2929 3.70711C24.1054 3.51957 24 3.26522 24 3V2ZM46 55C46 55.7957 45.6839 56.5587 45.1213 57.1213C44.5587 57.6839 43.7956 58 43 58H17C16.2043 58 15.4413 57.6839 14.8787 57.1213C14.3161 56.5587 14 55.7957 14 55V5C14 4.20435 14.3161 3.44129 14.8787 2.87868C15.4413 2.31607 16.2043 2 17 2H22V3C22 3.79565 22.3161 4.55871 22.8787 5.12132C23.4413 5.68393 24.2043 6 25 6H35C35.7956 6 36.5587 5.68393 37.1213 5.12132C37.6839 4.55871 38 3.79565 38 3V2H43C43.7956 2 44.5587 2.31607 45.1213 2.87868C45.6839 3.44129 46 4.20435 46 5V55Z" fill="white"/>
<path d="M37 54H23C22.7348 54 22.4804 54.1054 22.2929 54.2929C22.1054 54.4804 22 54.7348 22 55C22 55.2652 22.1054 55.5196 22.2929 55.7071C22.4804 55.8946 22.7348 56 23 56H37C37.2652 56 37.5196 55.8946 37.7071 55.7071C37.8946 55.5196 38 55.2652 38 55C38 54.7348 37.8946 54.4804 37.7071 54.2929C37.5196 54.1054 37.2652 54 37 54ZM38 39C38.2652 39 38.5196 38.8946 38.7071 38.7071C38.8946 38.5196 39 38.2652 39 38C39 37.7348 38.8946 37.4804 38.7071 37.2929C38.5196 37.1054 38.2652 37 38 37H32C31.7348 37 31.4804 37.1054 31.2929 37.2929C31.1054 37.4804 31 37.7348 31 38C31 38.2652 31.1054 38.5196 31.2929 38.7071C31.4804 38.8946 31.7348 39 32 39H34V47H32C31.7348 47 31.4804 47.1054 31.2929 47.2929C31.1054 47.4804 31 47.7348 31 48C31 48.2652 31.1054 48.5196 31.2929 48.7071C31.4804 48.8946 31.7348 49 32 49H38C38.2652 49 38.5196 48.8946 38.7071 48.7071C38.8946 48.5196 39 48.2652 39 48C39 47.7348 38.8946 47.4804 38.7071 47.2929C38.5196 47.1054 38.2652 47 38 47H36V39H38ZM22 37C21.7348 37 21.4804 37.1054 21.2929 37.2929C21.1054 37.4804 21 37.7348 21 38V45C21 46.0609 21.4214 47.0783 22.1716 47.8284C22.9217 48.5786 23.9391 49 25 49C26.0609 49 27.0783 48.5786 27.8284 47.8284C28.5786 47.0783 29 46.0609 29 45V38C29 37.7348 28.8946 37.4804 28.7071 37.2929C28.5196 37.1054 28.2652 37 28 37C27.7348 37 27.4804 37.1054 27.2929 37.2929C27.1054 37.4804 27 37.7348 27 38V45C27 45.5304 26.7893 46.0391 26.4142 46.4142C26.0391 46.7893 25.5304 47 25 47C24.4696 47 23.9609 46.7893 23.5858 46.4142C23.2107 46.0391 23 45.5304 23 45V38C23 37.7348 22.8946 37.4804 22.7071 37.2929C22.5196 37.1054 22.2652 37 22 37ZM25 22C26.0609 22 27.0783 21.5786 27.8284 20.8284C28.5786 20.0783 29 19.0609 29 18V11C29 10.7348 28.8946 10.4804 28.7071 10.2929C28.5196 10.1054 28.2652 10 28 10C27.7348 10 27.4804 10.1054 27.2929 10.2929C27.1054 10.4804 27 10.7348 27 11V18C27 18.5304 26.7893 19.0391 26.4142 19.4142C26.0391 19.7893 25.5304 20 25 20C24.4696 20 23.9609 19.7893 23.5858 19.4142C23.2107 19.0391 23 18.5304 23 18V11C23 10.7348 22.8946 10.4804 22.7071 10.2929C22.5196 10.1054 22.2652 10 22 10C21.7348 10 21.4804 10.1054 21.2929 10.2929C21.1054 10.4804 21 10.7348 21 11V18C21 19.0609 21.4214 20.0783 22.1716 20.8284C22.9217 21.5786 23.9391 22 25 22ZM31.485 21.857C31.7123 21.9935 31.9845 22.0342 32.2418 21.9701C32.4991 21.906 32.7204 21.7423 32.857 21.515L35 17.944L37.143 21.515C37.282 21.7372 37.5027 21.8959 37.7576 21.957C38.0125 22.0181 38.2811 21.9767 38.5058 21.8417C38.7304 21.7067 38.8931 21.4889 38.9588 21.2351C39.0245 20.9814 38.9879 20.7121 38.857 20.485L36.166 16L38.857 11.515C38.9879 11.288 39.0245 11.0186 38.9588 10.7649C38.8931 10.5111 38.7304 10.2933 38.5058 10.1583C38.2811 10.0233 38.0125 9.98193 37.7576 10.043C37.5027 10.1041 37.282 10.2628 37.143 10.485L35 14.056L32.857 10.485C32.718 10.2628 32.4973 10.1041 32.2424 10.043C31.9875 9.98193 31.7189 10.0233 31.4942 10.1583C31.2696 10.2933 31.1069 10.5111 31.0412 10.7649C30.9755 11.0186 31.0121 11.288 31.143 11.515L33.834 16L31.143 20.485C31.0065 20.7123 30.9658 20.9845 31.0299 21.2418C31.0941 21.4991 31.2577 21.7204 31.485 21.857ZM41.72 25.04L17.72 32.04C17.5939 32.0768 17.4763 32.138 17.3739 32.2202C17.2715 32.3024 17.1863 32.404 17.1232 32.5192C17.06 32.6343 17.0202 32.7608 17.0059 32.8913C16.9917 33.0219 17.0032 33.1539 17.04 33.28C17.0768 33.4061 17.138 33.5237 17.2202 33.6261C17.3024 33.7285 17.404 33.8137 17.5192 33.8768C17.6343 33.94 17.7608 33.9798 17.8913 33.9941C18.0219 34.0084 18.1539 33.9968 18.28 33.96L42.28 26.96C42.5346 26.8857 42.7493 26.7134 42.8768 26.4808C43.0043 26.2483 43.0343 25.9746 42.96 25.72C42.8857 25.4654 42.7134 25.2507 42.4808 25.1232C42.2483 24.9957 41.9746 24.9657 41.72 25.04Z" fill="white"/>
</svg>
